<svg width="24" height="24" viewBox="0 0 24 24" fill="none" xmlns="http://www.w3.org/2000/svg">
<path fill-rule="evenodd" clip-rule="evenodd" d="M2 19.3552C2 19.0021 2.31236 18.7158 2.69767 18.7158H21.3023C21.6876 18.7158 22 19.0021 22 19.3552C22 19.7083 21.6876 19.9945 21.3023 19.9945H2.69767C2.31236 19.9945 2 19.7083 2 19.3552Z" fill="#707070"/>
<path fill-rule="evenodd" clip-rule="evenodd" d="M11.9777 4.27873C10.7357 4.27982 9.58715 4.53642 8.90704 4.96517C7.46726 5.87284 6.30233 7.7778 6.30233 10.8321C6.30233 14.0645 5.72339 17.488 3.19143 19.8123C2.91921 20.0622 2.47747 20.0626 2.20477 19.8131C1.93208 19.5637 1.93169 19.1588 2.20391 18.9089C4.32313 16.9635 4.90698 13.9932 4.90698 10.8321C4.90698 7.49271 6.19036 5.12575 8.11621 3.91165C9.11892 3.27953 10.5866 3.00122 11.9763 3C13.3679 2.99879 14.8464 3.2752 15.8764 3.90679C17.875 5.13238 19.093 7.50268 19.093 10.8321C19.093 13.9931 19.6769 16.9635 21.7961 18.9089C22.0683 19.1588 22.0679 19.5637 21.7952 19.8131C21.5225 20.0626 21.0808 20.0622 20.8086 19.8123C18.2766 17.488 17.6977 14.0644 17.6977 10.8321C17.6977 7.76818 16.5856 5.88029 15.1004 4.96953C14.3861 4.53154 13.2177 4.27765 11.9777 4.27873Z" fill="#707070"/>
<path fill-rule="evenodd" clip-rule="evenodd" d="M9.58786 19.3798C9.58787 19.3799 9.58787 19.3799 9.58787 19.3799C9.5879 19.38 9.58794 19.3802 9.58799 19.3804L9.59055 19.3917C9.59329 19.4035 9.59814 19.4234 9.60543 19.4503C9.62005 19.5041 9.64424 19.5851 9.68053 19.6841C9.75376 19.8838 9.87261 20.1467 10.0541 20.4059C10.4073 20.9106 10.9901 21.4 12 21.4C13.0099 21.4 13.5927 20.9106 13.946 20.4059C14.1274 20.1467 14.2463 19.8838 14.3195 19.6841C14.3558 19.5851 14.38 19.5041 14.3946 19.4503C14.4019 19.4234 14.4067 19.4035 14.4095 19.3917L14.412 19.3804L14.412 19.3806L14.4119 19.3813L14.4118 19.3818C14.4119 19.3812 14.412 19.3805 14.4122 19.3799C14.4121 19.38 14.4121 19.3802 14.412 19.3804L14.4122 19.3797C14.4123 19.3794 14.4122 19.3795 14.4122 19.3799C14.4783 19.0563 14.7936 18.8468 15.1177 18.9117C15.4426 18.9766 15.6534 19.2927 15.5884 19.6177L15 19.5C15.5884 19.6177 15.5883 19.618 15.5882 19.6183L15.5881 19.6189L15.5878 19.6204L15.5871 19.624L15.585 19.6339L15.5781 19.6644C15.5723 19.6893 15.564 19.7231 15.5527 19.7646C15.5302 19.8475 15.4958 19.9618 15.4462 20.0972C15.3475 20.3662 15.1851 20.7283 14.9291 21.0941C14.4073 21.8394 13.4901 22.6 12 22.6C10.5099 22.6 9.59271 21.8394 9.07098 21.0941C8.81492 20.7283 8.65253 20.3662 8.55388 20.0972C8.50423 19.9618 8.46983 19.8475 8.44734 19.7646C8.43607 19.7231 8.42774 19.6893 8.42194 19.6644L8.41507 19.6339L8.41296 19.624L8.41221 19.6204L8.41192 19.6189L8.41179 19.6183C8.41173 19.618 8.41167 19.6177 9.00002 19.5L8.41167 19.6177C8.34668 19.2927 8.55741 18.9766 8.88235 18.9117C9.20645 18.8468 9.52176 19.0563 9.58786 19.3798Z" fill="#707070"/>
<path fill-rule="evenodd" clip-rule="evenodd" d="M10.5681 3.69336C10.4619 4.00541 10.1235 4.1736 9.81033 4.06921C9.49596 3.96442 9.32607 3.62463 9.43086 3.31026L10.0001 3.5C9.43086 3.31026 9.43094 3.31001 9.43103 3.30975L9.43121 3.30919L9.43162 3.30798L9.43259 3.30513L9.43514 3.29776L9.44272 3.2766C9.4489 3.25974 9.45738 3.23743 9.46831 3.21043C9.49012 3.15655 9.52193 3.08338 9.56497 2.9973C9.65038 2.82649 9.7837 2.59741 9.97663 2.36589C10.3662 1.89841 11.0214 1.4 12.0001 1.4C12.9787 1.4 13.6339 1.89841 14.0235 2.36589C14.2164 2.59741 14.3498 2.82649 14.4352 2.9973C14.4782 3.08338 14.51 3.15655 14.5318 3.21043C14.5427 3.23743 14.5512 3.25974 14.5574 3.2766L14.565 3.29776L14.5675 3.30513L14.5685 3.30798L14.5689 3.30919L14.5691 3.30975C14.5692 3.31001 14.5693 3.31026 14.0001 3.5L14.5693 3.31026C14.6741 3.62463 14.5042 3.96442 14.1898 4.06921C13.8766 4.1736 13.5382 4.0054 13.4321 3.69335L13.4308 3.68971C13.4289 3.68459 13.4252 3.67468 13.4195 3.66066C13.4081 3.63252 13.3891 3.5885 13.3618 3.53395C13.3066 3.42352 13.2212 3.27759 13.1016 3.13411C12.8662 2.8516 12.5214 2.6 12.0001 2.6C11.4787 2.6 11.1339 2.8516 10.8985 3.13411C10.7789 3.27759 10.6935 3.42352 10.6383 3.53395C10.611 3.5885 10.592 3.63252 10.5806 3.66066C10.575 3.67468 10.5712 3.68459 10.5694 3.68971L10.5681 3.69336Z" fill="#707070"/>
</svg>
