<svg width="24" height="24" viewBox="0 0 24 24" fill="none" xmlns="http://www.w3.org/2000/svg">
<path fill-rule="evenodd" clip-rule="evenodd" d="M11.9999 2.24528C11.9554 2.24528 11.9032 2.26175 11.8555 2.30596L11.854 2.30742L2.82571 10.6293C2.798 10.6566 2.77334 10.6915 2.7552 10.7333C2.7368 10.7756 2.72614 10.8227 2.7249 10.8716V21.461C2.7249 21.5536 2.76162 21.6337 2.81296 21.6858C2.86272 21.7363 2.91892 21.7547 2.96581 21.7547H8.38624C8.43313 21.7547 8.48933 21.7363 8.53909 21.6858C8.59043 21.6337 8.62715 21.5536 8.62715 21.461V15.963C8.62715 15.5695 8.78079 15.1835 9.06829 14.8919C9.35737 14.5987 9.76074 14.424 10.1931 14.424H13.8067C14.239 14.424 14.6424 14.5987 14.9314 14.8919C15.2189 15.1835 15.3726 15.5695 15.3726 15.963V21.461C15.3726 21.5536 15.4093 21.6337 15.4606 21.6858C15.5104 21.7363 15.5666 21.7547 15.6135 21.7547H21.0339C21.0808 21.7547 21.137 21.7363 21.1868 21.6858C21.2381 21.6337 21.2748 21.5536 21.2748 21.461V10.8717C21.2736 10.8228 21.2629 10.7756 21.2445 10.7333C21.2264 10.6915 21.2017 10.6566 21.174 10.6293L12.1458 2.30742L12.1442 2.30596C12.0966 2.26175 12.0443 2.24528 11.9999 2.24528ZM10.9256 1.41893C11.2109 1.1546 11.5933 1 11.9999 1C12.4064 1 12.7888 1.1546 13.0742 1.41893C13.0745 1.41923 13.0748 1.41953 13.0751 1.41982L22.1167 9.75395C22.2695 9.90034 22.3892 10.0737 22.4712 10.2625C22.5532 10.4512 22.5965 10.6531 22.5998 10.8566L22.5999 10.8659L22.5998 21.461C22.5998 21.8545 22.4462 22.2405 22.1587 22.5322C21.8696 22.8254 21.4662 23 21.0339 23H15.6135C15.1812 23 14.7778 22.8254 14.4887 22.5322C14.2012 22.2405 14.0476 21.8545 14.0476 21.461V15.963C14.0476 15.8704 14.0109 15.7903 13.9595 15.7382C13.9098 15.6878 13.8536 15.6693 13.8067 15.6693H10.1931C10.1462 15.6693 10.09 15.6878 10.0402 15.7382C9.98887 15.7903 9.95214 15.8704 9.95214 15.963V21.461C9.95214 21.8545 9.79851 22.2405 9.511 22.5322C9.22192 22.8254 8.81855 23 8.38624 23H2.96581C2.5335 23 2.13013 22.8254 1.84104 22.5322C1.55354 22.2405 1.3999 21.8545 1.3999 21.461V10.8566C1.40315 10.6531 1.44653 10.4512 1.52853 10.2625C1.61054 10.0737 1.73029 9.90042 1.8831 9.75404L1.89204 9.74548L10.9246 1.41982C10.9249 1.41953 10.9252 1.41923 10.9256 1.41893Z" fill="#707070"/>
</svg>
