<svg width="20" height="20" viewBox="0 0 20 20" fill="none" xmlns="http://www.w3.org/2000/svg">
<path d="M6.66659 10C6.66659 10.9205 5.92039 11.6667 4.99992 11.6667C4.07944 11.6667 3.33325 10.9205 3.33325 10C3.33325 9.07952 4.07944 8.33333 4.99992 8.33333C5.92039 8.33333 6.66659 9.07952 6.66659 10Z" fill="#131313"/>
<path d="M11.6666 10C11.6666 10.9205 10.9204 11.6667 9.99992 11.6667C9.07944 11.6667 8.33325 10.9205 8.33325 10C8.33325 9.07952 9.07944 8.33333 9.99992 8.33333C10.9204 8.33333 11.6666 9.07952 11.6666 10Z" fill="#131313"/>
<path d="M16.6666 10C16.6666 10.9205 15.9204 11.6667 14.9999 11.6667C14.0794 11.6667 13.3333 10.9205 13.3333 10C13.3333 9.07952 14.0794 8.33333 14.9999 8.33333C15.9204 8.33333 16.6666 9.07952 16.6666 10Z" fill="#131313"/>
</svg>
