<svg width="24" height="24" viewBox="0 0 24 24" fill="none" xmlns="http://www.w3.org/2000/svg">
<path fill-rule="evenodd" clip-rule="evenodd" d="M12 8.09999C9.84611 8.09999 8.10002 9.84608 8.10002 12C8.10002 14.1539 9.84611 15.9 12 15.9C14.1539 15.9 15.9 14.1539 15.9 12C15.9 9.84608 14.1539 8.09999 12 8.09999ZM6.90002 12C6.90002 9.18334 9.18337 6.89999 12 6.89999C14.8167 6.89999 17.1 9.18334 17.1 12C17.1 14.8166 14.8167 17.1 12 17.1C9.18337 17.1 6.90002 14.8166 6.90002 12Z" fill="#3078F1"/>
<path fill-rule="evenodd" clip-rule="evenodd" d="M4.48811 12.4572C4.48811 12.4572 4.46121 11.8476 4.48811 11.5428L3.00006 9.56175C3.20736 8.78996 3.51475 8.04861 3.9144 7.35657L6.36161 7.00697C6.57078 6.78585 6.78592 6.57071 7.00703 6.36155L7.35663 3.91434C8.04912 3.5156 8.79035 3.20826 9.56181 3L11.5429 4.48805C11.8471 4.46115 12.153 4.46115 12.4572 4.48805L14.4383 3C15.2101 3.20729 15.9515 3.51468 16.6435 3.91434L16.9931 6.36155C17.2202 6.57071 17.4353 6.78585 17.6385 7.00697L20.0857 7.35657C20.4845 8.04906 20.7918 8.79029 21.0001 9.56175L19.512 11.5428C19.512 11.5428 19.5389 12.1524 19.512 12.4572L21.0001 14.4382C20.7928 15.21 20.4854 15.9514 20.0857 16.6434L17.6385 16.993C17.6385 16.993 17.2172 17.4323 16.9931 17.6384L16.6435 20.0857C15.951 20.4844 15.2098 20.7917 14.4383 21L12.4572 19.512C12.153 19.5388 11.8471 19.5388 11.5429 19.512L9.56181 21C8.79002 20.7927 8.04867 20.4853 7.35663 20.0857L7.00703 17.6384C6.78592 17.4293 6.57078 17.2141 6.36161 16.993L3.9144 16.6434C3.51566 15.9509 3.20832 15.2097 3.00006 14.4382L4.48811 12.4572ZM5.78567 18.1229L3.7447 17.8314C3.37948 17.7792 3.05857 17.5619 2.87448 17.2422C2.42401 16.4599 2.07681 15.6225 1.84153 14.751C1.74522 14.3942 1.81865 14.013 2.04058 13.7176L3.27721 12.0712C3.27661 12.0264 3.27619 11.978 3.27613 11.9274L2.04058 10.2824C1.81897 9.98741 1.74542 9.60683 1.84113 9.25047C2.07558 8.37759 2.42324 7.53913 2.87524 6.75645C3.05947 6.43744 3.38002 6.22073 3.7447 6.16863L5.78566 5.87707C5.81604 5.84647 5.84653 5.81598 5.87713 5.7856L6.16869 3.74463C6.22087 3.37942 6.43813 3.05851 6.75783 2.87442C7.54014 2.42395 8.37752 2.07675 9.24906 1.84147C9.60581 1.74516 9.98705 1.81859 10.2825 2.04052L11.9172 3.26841C11.9724 3.26769 12.0277 3.26769 12.0829 3.26841L13.7176 2.04052C14.0126 1.81891 14.3932 1.74536 14.7496 1.84107C15.6225 2.07552 16.4609 2.42318 17.2436 2.87518C17.5626 3.05941 17.7793 3.37995 17.8314 3.74463L18.1223 5.78053C18.1549 5.81281 18.1874 5.84524 18.2196 5.8778L20.2554 6.16863C20.6206 6.22081 20.9415 6.43807 21.1256 6.75777C21.5761 7.54008 21.9233 8.37746 22.1586 9.249C22.2549 9.60575 22.1815 9.98699 21.9595 10.2824L20.7229 11.9288C20.7235 11.9736 20.7239 12.022 20.724 12.0726L21.9595 13.7176C22.1811 14.0126 22.2547 14.3932 22.159 14.7495C21.9245 15.6224 21.5769 16.4609 21.1249 17.2435C20.9406 17.5626 20.6201 17.7793 20.2554 17.8314L18.2127 18.1232C18.1841 18.1521 18.154 18.1824 18.1231 18.2134L17.8314 20.2554C17.7793 20.6206 17.562 20.9415 17.2423 21.1256C16.46 21.576 15.6226 21.9232 14.7511 22.1585C14.3943 22.2548 14.0131 22.1814 13.7176 21.9595L12.0829 20.7316C12.0277 20.7323 11.9724 20.7323 11.9172 20.7316L10.2825 21.9595C9.98748 22.1811 9.60689 22.2546 9.25053 22.1589C8.37765 21.9245 7.53919 21.5768 6.75651 21.1248C6.4375 20.9406 6.22079 20.62 6.16869 20.2554L5.87713 18.2144C5.84653 18.184 5.81604 18.1535 5.78567 18.1229Z" fill="#3078F1"/>
</svg>
