<svg width="20" height="20" viewBox="0 0 20 20" fill="none" xmlns="http://www.w3.org/2000/svg">
<path fill-rule="evenodd" clip-rule="evenodd" d="M8.03467 2.61007C5.03879 2.61007 2.61014 5.03871 2.61014 8.0346C2.61014 11.0305 5.03879 13.4591 8.03467 13.4591C11.0306 13.4591 13.4592 11.0305 13.4592 8.0346C13.4592 5.03871 11.0306 2.61007 8.03467 2.61007ZM1.66675 8.0346C1.66675 4.51769 4.51777 1.66667 8.03467 1.66667C11.5516 1.66667 14.4026 4.51769 14.4026 8.0346C14.4026 11.5515 11.5516 14.4025 8.03467 14.4025C4.51777 14.4025 1.66675 11.5515 1.66675 8.0346Z" fill="#707070"/>
<path fill-rule="evenodd" clip-rule="evenodd" d="M12.0251 12.0246C12.2093 11.8404 12.508 11.8404 12.6922 12.0246L18.1953 17.5277C18.3796 17.7119 18.3796 18.0106 18.1953 18.1948C18.0111 18.379 17.7125 18.379 17.5283 18.1948L12.0251 12.6917C11.8409 12.5074 11.8409 12.2088 12.0251 12.0246Z" fill="#707070"/>
</svg>
