<svg width="24" height="25" viewBox="0 0 24 25" fill="none" xmlns="http://www.w3.org/2000/svg">
<path d="M2.9999 21.4029C2.77899 21.4029 2.5999 21.2238 2.5999 21.0029V8.00294C2.5999 7.78202 2.77899 7.60294 2.9999 7.60294H20.9999C21.2208 7.60294 21.3999 7.78202 21.3999 8.00294V14.5029C21.3999 15.5028 22.5999 15.5028 22.5999 14.5029V8.00294C22.5999 7.11928 21.8836 6.40294 20.9999 6.40294H2.9999C2.11625 6.40294 1.3999 7.11928 1.3999 8.00294V21.0029C1.3999 21.8866 2.11625 22.6029 2.9999 22.6029H11C12 22.6029 12 21.4029 11 21.4029H2.9999Z" fill="#333333"/>
<path fill-rule="evenodd" clip-rule="evenodd" d="M8.3999 20.0029C8.3999 19.6716 8.66853 19.4029 8.9999 19.4029H10.9C11.2314 19.4029 11.5 19.6716 11.5 20.0029C11.5 20.3343 11.2314 20.6029 10.9 20.6029H8.9999C8.66853 20.6029 8.3999 20.3343 8.3999 20.0029Z" fill="#333333"/>
<path fill-rule="evenodd" clip-rule="evenodd" d="M7.5 10.0029C7.5 9.1745 8.17157 8.50293 9 8.50293H15C15.8284 8.50293 16.5 9.1745 16.5 10.0029C16.5 10.8314 15.8284 11.5029 15 11.5029H9C8.17157 11.5029 7.5 10.8314 7.5 10.0029ZM9 9.50293C8.72386 9.50293 8.5 9.72679 8.5 10.0029C8.5 10.2791 8.72386 10.5029 9 10.5029H15C15.2761 10.5029 15.5 10.2791 15.5 10.0029C15.5 9.72679 15.2761 9.50293 15 9.50293H9Z" fill="#333333"/>
<path fill-rule="evenodd" clip-rule="evenodd" d="M8.10129 2.55449C8.33873 2.34344 8.69954 2.35404 8.92417 2.57868L11.4242 5.07868C11.6585 5.31299 11.6585 5.69289 11.4242 5.9272C11.1899 6.16152 10.81 6.16152 10.5756 5.9272L8.47569 3.82724L4.39853 7.45139C4.15086 7.67154 3.77161 7.64923 3.55146 7.40156C3.33131 7.15389 3.35362 6.77465 3.60129 6.55449L8.10129 2.55449Z" fill="#333333"/>
<path fill-rule="evenodd" clip-rule="evenodd" d="M15.5299 1.40369C15.6894 1.41168 15.8391 1.48289 15.9459 1.60156L20.4459 6.60156C20.6676 6.84787 20.6476 7.22724 20.4013 7.44892C20.155 7.67059 19.7756 7.65062 19.5539 7.40432L15.4573 2.85253L10.4035 7.4469C10.1583 7.66981 9.77885 7.65174 9.55594 7.40654C9.33304 7.16135 9.35111 6.78188 9.5963 6.55898L15.0963 1.55898C15.2144 1.45158 15.3705 1.3957 15.5299 1.40369Z" fill="#333333"/>
<path fill-rule="evenodd" clip-rule="evenodd" d="M12.45 16.1398C12.45 15.7602 12.7587 15.4525 13.1395 15.4525H17.4495C17.8303 15.4525 18.1391 15.7602 18.1391 16.1398V21.0796C18.1391 21.2219 18.0233 21.3373 17.8805 21.3373C17.7376 21.3373 17.6219 21.2219 17.6219 21.0796V16.1398C17.6219 16.0449 17.5447 15.968 17.4495 15.968H13.1395C13.0443 15.968 12.9671 16.0449 12.9671 16.1398V20.65C12.9671 20.7449 13.0443 20.8218 13.1395 20.8218H13.786C13.9288 20.8218 14.0446 20.9372 14.0446 21.0796C14.0446 21.2219 13.9288 21.3373 13.786 21.3373H13.1395C12.7587 21.3373 12.45 21.0296 12.45 20.65V16.1398Z" fill="#333333"/>
<path fill-rule="evenodd" clip-rule="evenodd" d="M12.3 16.1399C12.3 15.677 12.6764 15.3026 13.1396 15.3026H17.4496C17.9128 15.3026 18.2892 15.677 18.2892 16.1399V21.0797C18.2892 21.3053 18.1057 21.4874 17.8806 21.4874C17.6554 21.4874 17.472 21.3053 17.472 21.0797V16.1399C17.472 16.1283 17.4624 16.1181 17.4496 16.1181H13.1396C13.1268 16.1181 13.1172 16.1283 13.1172 16.1399V20.6501C13.1172 20.6617 13.1268 20.6719 13.1396 20.6719H13.7861C14.0113 20.6719 14.1947 20.854 14.1947 21.0797C14.1947 21.3053 14.0113 21.4874 13.7861 21.4874H13.1396C12.6764 21.4874 12.3 21.113 12.3 20.6501V16.1399ZM13.1396 15.6026C12.8412 15.6026 12.6 15.8437 12.6 16.1399V20.6501C12.6 20.9464 12.8412 21.1874 13.1396 21.1874H13.7861C13.8466 21.1874 13.8947 21.1387 13.8947 21.0797C13.8947 21.0206 13.8466 20.9719 13.7861 20.9719H13.1396C12.9621 20.9719 12.8172 20.8283 12.8172 20.6501V16.1399C12.8172 15.9617 12.9621 15.8181 13.1396 15.8181H17.4496C17.6271 15.8181 17.772 15.9617 17.772 16.1399V21.0797C17.772 21.1387 17.8201 21.1874 17.8806 21.1874C17.941 21.1874 17.9892 21.1387 17.9892 21.0797V16.1399C17.9892 15.8437 17.7481 15.6026 17.4496 15.6026H13.1396Z" fill="#333333"/>
<path fill-rule="evenodd" clip-rule="evenodd" d="M16.1143 21.0799C16.1143 20.9376 16.23 20.8222 16.3729 20.8222H18.5278C18.6706 20.8222 18.7864 20.9376 18.7864 21.0799C18.7864 21.2222 18.6706 21.3376 18.5278 21.3376H16.3729C16.23 21.3376 16.1143 21.2222 16.1143 21.0799Z" fill="#333333"/>
<path fill-rule="evenodd" clip-rule="evenodd" d="M15.9644 21.08C15.9644 20.8543 16.1478 20.6723 16.373 20.6723H18.5279C18.7531 20.6723 18.9365 20.8543 18.9365 21.08C18.9365 21.3057 18.7531 21.4877 18.5279 21.4877H16.373C16.1478 21.4877 15.9644 21.3057 15.9644 21.08ZM16.373 20.9723C16.3125 20.9723 16.2644 21.021 16.2644 21.08C16.2644 21.139 16.3125 21.1877 16.373 21.1877H18.5279C18.5884 21.1877 18.6365 21.139 18.6365 21.08C18.6365 21.021 18.5884 20.9723 18.5279 20.9723H16.373Z" fill="#333333"/>
<path fill-rule="evenodd" clip-rule="evenodd" d="M16.4583 21.0781C16.4583 21.8372 15.8408 22.4526 15.0791 22.4526C14.3174 22.4526 13.7 21.8372 13.7 21.0781C13.7 20.3189 14.3174 19.7035 15.0791 19.7035C15.8408 19.7035 16.4583 20.3189 16.4583 21.0781ZM15.0791 21.9371C15.5552 21.9371 15.9411 21.5525 15.9411 21.0781C15.9411 20.6036 15.5552 20.219 15.0791 20.219C14.6031 20.219 14.2171 20.6036 14.2171 21.0781C14.2171 21.5525 14.6031 21.9371 15.0791 21.9371Z" fill="#333333"/>
<path fill-rule="evenodd" clip-rule="evenodd" d="M13.5498 21.0782C13.5498 20.2357 14.2349 19.5536 15.079 19.5536C15.923 19.5536 16.6082 20.2357 16.6082 21.0782C16.6082 21.9206 15.923 22.6027 15.079 22.6027C14.2349 22.6027 13.5498 21.9206 13.5498 21.0782ZM15.079 19.8536C14.3996 19.8536 13.8498 20.4023 13.8498 21.0782C13.8498 21.754 14.3996 22.3027 15.079 22.3027C15.7583 22.3027 16.3082 21.754 16.3082 21.0782C16.3082 20.4023 15.7583 19.8536 15.079 19.8536ZM15.079 20.3691C14.6853 20.3691 14.367 20.687 14.367 21.0782C14.367 21.4693 14.6853 21.7872 15.079 21.7872C15.4727 21.7872 15.791 21.4693 15.791 21.0782C15.791 20.687 15.4727 20.3691 15.079 20.3691ZM14.067 21.0782C14.067 20.5204 14.5206 20.0691 15.079 20.0691C15.6374 20.0691 16.091 20.5204 16.091 21.0782C16.091 21.6359 15.6374 22.0872 15.079 22.0872C14.5206 22.0872 14.067 21.6359 14.067 21.0782Z" fill="#333333"/>
<path fill-rule="evenodd" clip-rule="evenodd" d="M21.2015 21.0781C21.2015 21.8372 20.584 22.4526 19.8223 22.4526C19.0606 22.4526 18.4431 21.8372 18.4431 21.0781C18.4431 20.3189 19.0606 19.7035 19.8223 19.7035C20.584 19.7035 21.2015 20.3189 21.2015 21.0781ZM19.8223 21.9371C20.2984 21.9371 20.6843 21.5525 20.6843 21.0781C20.6843 20.6036 20.2984 20.219 19.8223 20.219C19.3462 20.219 18.9603 20.6036 18.9603 21.0781C18.9603 21.5525 19.3462 21.9371 19.8223 21.9371Z" fill="#333333"/>
<path fill-rule="evenodd" clip-rule="evenodd" d="M18.293 21.0782C18.293 20.2357 18.9781 19.5536 19.8221 19.5536C20.6662 19.5536 21.3513 20.2357 21.3513 21.0782C21.3513 21.9206 20.6662 22.6027 19.8221 22.6027C18.9781 22.6027 18.293 21.9206 18.293 21.0782ZM19.8221 19.8536C19.1428 19.8536 18.593 20.4023 18.593 21.0782C18.593 21.754 19.1428 22.3027 19.8221 22.3027C20.5015 22.3027 21.0513 21.754 21.0513 21.0782C21.0513 20.4023 20.5015 19.8536 19.8221 19.8536ZM19.8221 20.3691C19.4285 20.3691 19.1102 20.687 19.1102 21.0782C19.1102 21.4693 19.4285 21.7872 19.8221 21.7872C20.2158 21.7872 20.5341 21.4693 20.5341 21.0782C20.5341 20.687 20.2158 20.3691 19.8221 20.3691ZM18.8102 21.0782C18.8102 20.5204 19.2637 20.0691 19.8221 20.0691C20.3806 20.0691 20.8341 20.5204 20.8341 21.0782C20.8341 21.6359 20.3806 22.0872 19.8221 22.0872C19.2637 22.0872 18.8102 21.6359 18.8102 21.0782Z" fill="#333333"/>
<path fill-rule="evenodd" clip-rule="evenodd" d="M17.6228 16.7845C17.6228 16.6422 17.7386 16.5268 17.8814 16.5268H20.4873C20.6861 16.5268 20.8753 16.6123 21.0063 16.7615L22.2793 18.2115C22.3893 18.3368 22.4499 18.4976 22.4499 18.6641V20.6504C22.4499 21.0299 22.1412 21.3376 21.7603 21.3376H21.1138C20.971 21.3376 20.8553 21.2223 20.8553 21.0799C20.8553 20.9376 20.971 20.8222 21.1138 20.8222H21.7603C21.8555 20.8222 21.9327 20.7453 21.9327 20.6504V18.6641C21.9327 18.6224 21.9176 18.5822 21.8901 18.5509L20.617 17.1009C20.5843 17.0636 20.537 17.0422 20.4873 17.0422H17.8814C17.7386 17.0422 17.6228 16.9268 17.6228 16.7845Z" fill="#333333"/>
<path fill-rule="evenodd" clip-rule="evenodd" d="M17.4729 16.7846C17.4729 16.5589 17.6563 16.3769 17.8815 16.3769H20.4874C20.7293 16.3769 20.9596 16.4809 21.1191 16.6626L22.3921 18.1126C22.5261 18.2652 22.6 18.4612 22.6 18.6642V20.6505C22.6 21.1134 22.2236 21.4877 21.7604 21.4877H21.1139C20.8888 21.4877 20.7053 21.3057 20.7053 21.08C20.7053 20.8544 20.8888 20.6723 21.1139 20.6723H21.7604C21.7733 20.6723 21.7828 20.662 21.7828 20.6505V18.6642C21.7828 18.659 21.781 18.654 21.7775 18.65L20.5044 17.2L20.6171 17.101L20.5044 17.2C20.5002 17.1952 20.494 17.1923 20.4874 17.1923H17.8815C17.6563 17.1923 17.4729 17.0102 17.4729 16.7846ZM17.8815 16.6769C17.821 16.6769 17.7729 16.7256 17.7729 16.7846C17.7729 16.8436 17.821 16.8923 17.8815 16.8923H20.4874C20.5802 16.8923 20.6686 16.9322 20.7298 17.002L22.0029 18.452C22.0544 18.5107 22.0828 18.5861 22.0828 18.6642V20.6505C22.0828 20.8287 21.938 20.9723 21.7604 20.9723H21.1139C21.0535 20.9723 21.0053 21.021 21.0053 21.08C21.0053 21.139 21.0535 21.1877 21.1139 21.1877H21.7604C22.0589 21.1877 22.3 20.9467 22.3 20.6505V18.6642C22.3 18.5342 22.2527 18.4085 22.1667 18.3105L20.8936 16.8605L21.0063 16.7616L20.8936 16.8605C20.7912 16.7439 20.6432 16.6769 20.4874 16.6769H17.8815Z" fill="#333333"/>
<path fill-rule="evenodd" clip-rule="evenodd" d="M18.5522 17.8373C18.5522 17.6117 18.7357 17.4296 18.9608 17.4296H20.0362C20.1444 17.4296 20.2483 17.4724 20.3249 17.5488L21.1044 18.43C21.2213 18.5465 21.2565 18.7221 21.193 18.8746C21.1297 19.0271 20.9806 19.1262 20.8156 19.1262H18.9608C18.7357 19.1262 18.5522 18.9441 18.5522 18.7185V17.8373ZM19.1085 17.7763C19.048 17.7763 18.9999 17.825 18.9999 17.884V18.649C18.9999 18.708 19.048 18.7567 19.1085 18.7567H20.6534C20.6976 18.7567 20.7371 18.7302 20.7538 18.6901C20.7704 18.65 20.7613 18.6039 20.7304 18.573L19.9948 17.808C19.9745 17.7877 19.9178 17.7763 19.9178 17.7763H19.1085Z" fill="#333333"/>
</svg>
