<svg width="24" height="24" viewBox="0 0 24 24" fill="none" xmlns="http://www.w3.org/2000/svg">
<path fill-rule="evenodd" clip-rule="evenodd" d="M8.2001 2.5999C7.97918 2.5999 7.8001 2.77899 7.8001 2.9999C7.8001 3.22082 7.97918 3.3999 8.2001 3.3999H12.2001C12.421 3.3999 12.6001 3.22082 12.6001 2.9999C12.6001 2.77899 12.421 2.5999 12.2001 2.5999H8.2001ZM13.6838 2.3999C13.4464 1.81354 12.8716 1.3999 12.2001 1.3999H8.2001C7.52862 1.3999 6.95376 1.81354 6.7164 2.3999H3.2001C2.31644 2.3999 1.6001 3.11625 1.6001 3.9999V20.9999C1.6001 21.8836 2.31644 22.5999 3.2001 22.5999H15.2001C15.5315 22.5999 15.8001 22.3313 15.8001 21.9999C15.8001 21.6685 15.5315 21.3999 15.2001 21.3999H3.2001C2.97918 21.3999 2.8001 21.2208 2.8001 20.9999V3.9999C2.8001 3.77899 2.97918 3.5999 3.2001 3.5999H6.7164C6.95376 4.18627 7.52862 4.5999 8.2001 4.5999H12.2001C12.8716 4.5999 13.4464 4.18627 13.6838 3.5999H17.2001C17.421 3.5999 17.6001 3.77899 17.6001 3.9999V10.9999C17.6001 11.3313 17.8687 11.5999 18.2001 11.5999C18.5315 11.5999 18.8001 11.3313 18.8001 10.9999V3.9999C18.8001 3.11625 18.0838 2.3999 17.2001 2.3999H13.6838Z" fill="#333333"/>
<path fill-rule="evenodd" clip-rule="evenodd" d="M4.1001 6.9999C4.1001 6.66853 4.36873 6.3999 4.7001 6.3999H5.2001C5.53147 6.3999 5.8001 6.66853 5.8001 6.9999C5.8001 7.33127 5.53147 7.5999 5.2001 7.5999H4.7001C4.36873 7.5999 4.1001 7.33127 4.1001 6.9999Z" fill="#333333"/>
<path fill-rule="evenodd" clip-rule="evenodd" d="M4.1001 10.9999C4.1001 10.6685 4.36873 10.3999 4.7001 10.3999H5.2001C5.53147 10.3999 5.8001 10.6685 5.8001 10.9999C5.8001 11.3313 5.53147 11.5999 5.2001 11.5999H4.7001C4.36873 11.5999 4.1001 11.3313 4.1001 10.9999Z" fill="#333333"/>
<path fill-rule="evenodd" clip-rule="evenodd" d="M4.1001 14.9999C4.1001 14.6685 4.36873 14.3999 4.7001 14.3999H5.2001C5.53147 14.3999 5.8001 14.6685 5.8001 14.9999C5.8001 15.3313 5.53147 15.5999 5.2001 15.5999H4.7001C4.36873 15.5999 4.1001 15.3313 4.1001 14.9999Z" fill="#333333"/>
<path fill-rule="evenodd" clip-rule="evenodd" d="M4.1001 18.9999C4.1001 18.6685 4.36873 18.3999 4.7001 18.3999H5.2001C5.53147 18.3999 5.8001 18.6685 5.8001 18.9999C5.8001 19.3313 5.53147 19.5999 5.2001 19.5999H4.7001C4.36873 19.5999 4.1001 19.3313 4.1001 18.9999Z" fill="#333333"/>
<path fill-rule="evenodd" clip-rule="evenodd" d="M7.1001 6.9999C7.1001 6.66853 7.36873 6.3999 7.7001 6.3999L15.7001 6.3999C16.0315 6.3999 16.3001 6.66853 16.3001 6.9999C16.3001 7.33127 16.0315 7.5999 15.7001 7.5999L7.7001 7.5999C7.36873 7.5999 7.1001 7.33127 7.1001 6.9999Z" fill="#333333"/>
<path fill-rule="evenodd" clip-rule="evenodd" d="M7.1001 10.9999C7.1001 10.6685 7.36873 10.3999 7.7001 10.3999L11.2001 10.3999C11.5315 10.3999 11.8001 10.6685 11.8001 10.9999C11.8001 11.3313 11.5315 11.5999 11.2001 11.5999L7.7001 11.5999C7.36873 11.5999 7.1001 11.3313 7.1001 10.9999Z" fill="#333333"/>
<path fill-rule="evenodd" clip-rule="evenodd" d="M7.1001 14.9999C7.1001 14.6685 7.36873 14.3999 7.7001 14.3999H10.2001C10.5315 14.3999 10.8001 14.6685 10.8001 14.9999C10.8001 15.3313 10.5315 15.5999 10.2001 15.5999H7.7001C7.36873 15.5999 7.1001 15.3313 7.1001 14.9999Z" fill="#333333"/>
<path fill-rule="evenodd" clip-rule="evenodd" d="M7.1001 18.9999C7.1001 18.6685 7.36873 18.3999 7.7001 18.3999H10.2001C10.5315 18.3999 10.8001 18.6685 10.8001 18.9999C10.8001 19.3313 10.5315 19.5999 10.2001 19.5999H7.7001C7.36873 19.5999 7.1001 19.3313 7.1001 18.9999Z" fill="#333333"/>
<path fill-rule="evenodd" clip-rule="evenodd" d="M12.909 12.7088C12.9025 12.7214 12.8905 12.7471 12.8768 12.7914C12.8509 12.8744 12.8311 12.9821 12.8182 13.1035C12.7924 13.346 12.801 13.5743 12.8035 13.6261C12.8044 13.644 12.8051 13.664 12.8051 13.6863L12.8051 16.0328C12.8051 16.1389 12.8472 16.2406 12.9222 16.3157L17.475 20.8685C17.6313 21.0247 17.8845 21.0247 18.0407 20.8685L21.0688 17.8404C21.225 17.6842 21.225 17.431 21.0688 17.2748L16.516 12.7219C16.441 12.6469 16.3392 12.6048 16.2331 12.6048L13.8866 12.6049C13.8642 12.6049 13.8442 12.6042 13.8263 12.6033C13.7745 12.6008 13.5461 12.5922 13.3037 12.618C13.1823 12.6309 13.0746 12.6507 12.9916 12.6766C12.9473 12.6903 12.9216 12.7023 12.909 12.7088ZM13.1768 11.4247C13.5089 11.3894 13.8079 11.401 13.8854 11.4048C13.8863 11.4048 13.8869 11.4049 13.8873 11.4049L16.2331 11.4048C16.6574 11.4048 17.0644 11.5733 17.3645 11.8734L21.9173 16.4262C22.5422 17.0511 22.5422 18.0641 21.9173 18.689L18.8893 21.717C18.2644 22.3419 17.2514 22.3419 16.6265 21.717L12.0737 17.1642C11.7736 16.8641 11.6051 16.4572 11.6051 16.0328L11.6051 13.6871C11.6051 13.6868 11.605 13.6862 11.605 13.6853C11.6012 13.6077 11.5896 13.3088 11.6249 12.9766C11.6426 12.8107 11.6736 12.6192 11.7309 12.4351C11.7854 12.2598 11.8801 12.0365 12.0584 11.8582C12.2367 11.6799 12.46 11.5852 12.6353 11.5307C12.8194 11.4734 13.0109 11.4424 13.1768 11.4247Z" fill="#333333"/>
<path d="M14.9815 13.9486C14.9815 14.4086 14.6086 14.7815 14.1486 14.7815C13.6886 14.7815 13.3157 14.4086 13.3157 13.9486C13.3157 13.4885 13.6886 13.1156 14.1486 13.1156C14.6086 13.1156 14.9815 13.4885 14.9815 13.9486Z" fill="#333333"/>
<path fill-rule="evenodd" clip-rule="evenodd" d="M17.4133 15.8813C17.1268 15.8903 16.8539 16.0081 16.6506 16.2114C16.4389 16.4231 16.32 16.7102 16.32 17.0096C16.32 17.309 16.4389 17.5961 16.6506 17.8078C16.8623 18.0195 17.1494 18.1384 17.4488 18.1384H18.2505C18.3377 18.1384 18.4213 18.173 18.483 18.2347C18.5446 18.2964 18.5793 18.38 18.5793 18.4672C18.5793 18.5544 18.5446 18.638 18.483 18.6997C18.4213 18.7614 18.3377 18.796 18.2505 18.796H17.3759C17.2887 18.796 17.205 18.7614 17.1434 18.6997C17.0817 18.638 17.0471 18.5544 17.0471 18.4672C17.0471 18.2463 16.868 18.0672 16.6471 18.0672C16.4262 18.0672 16.2471 18.2463 16.2471 18.4672C16.2471 18.7666 16.366 19.0537 16.5777 19.2654C16.7894 19.4771 17.0765 19.596 17.3759 19.596H17.4132V19.6304C17.4132 19.8513 17.5923 20.0304 17.8132 20.0304C18.0341 20.0304 18.2132 19.8513 18.2132 19.6304V19.596H18.2505C18.5498 19.596 18.8369 19.4771 19.0486 19.2654C19.2603 19.0537 19.3793 18.7666 19.3793 18.4672C19.3793 18.1678 19.2603 17.8807 19.0486 17.669C18.8369 17.4573 18.5498 17.3384 18.2505 17.3384H17.4488C17.3616 17.3384 17.2779 17.3038 17.2163 17.2421C17.1546 17.1804 17.12 17.0968 17.12 17.0096C17.12 16.9224 17.1546 16.8387 17.2163 16.7771C17.2779 16.7154 17.3616 16.6808 17.4488 16.6808H18.1047C18.1479 16.6808 18.1906 16.6893 18.2305 16.7058C18.2704 16.7223 18.3067 16.7466 18.3372 16.7771C18.3677 16.8076 18.3919 16.8439 18.4085 16.8838C18.425 16.9237 18.4335 16.9664 18.4335 17.0096C18.4335 17.2305 18.6126 17.4096 18.8335 17.4096C19.0544 17.4096 19.2335 17.2305 19.2335 17.0096C19.2335 16.8614 19.2043 16.7146 19.1476 16.5776C19.0908 16.4407 19.0077 16.3162 18.9029 16.2114C18.7981 16.1066 18.6736 16.0234 18.5367 15.9667C18.4332 15.9239 18.3242 15.8967 18.2131 15.886C18.2099 15.6679 18.0321 15.492 17.8132 15.492C17.5958 15.492 17.419 15.6654 17.4133 15.8813Z" fill="#333333"/>
</svg>
