<svg width="24" height="24" viewBox="0 0 24 24" fill="none" xmlns="http://www.w3.org/2000/svg">
<path fill-rule="evenodd" clip-rule="evenodd" d="M2.3999 4.0001C2.3999 2.56416 3.56396 1.4001 4.9999 1.4001H15.9999C17.4358 1.4001 18.5999 2.56416 18.5999 4.0001V5.0001C18.5999 5.33147 18.3313 5.6001 17.9999 5.6001C17.6685 5.6001 17.3999 5.33147 17.3999 5.0001V4.0001C17.3999 3.2269 16.7731 2.6001 15.9999 2.6001H4.9999C4.2267 2.6001 3.5999 3.2269 3.5999 4.0001V20.0001C3.5999 20.7733 4.2267 21.4001 4.9999 21.4001H15.9999C16.7731 21.4001 17.3999 20.7733 17.3999 20.0001V19.0001C17.3999 18.6687 17.6685 18.4001 17.9999 18.4001C18.3313 18.4001 18.5999 18.6687 18.5999 19.0001V20.0001C18.5999 21.436 17.4358 22.6001 15.9999 22.6001H4.9999C3.56396 22.6001 2.3999 21.436 2.3999 20.0001V4.0001Z" fill="#707070"/>
<path fill-rule="evenodd" clip-rule="evenodd" d="M15.9999 7.6001C13.5698 7.6001 11.5999 9.57004 11.5999 12.0001C11.5999 14.4301 13.5698 16.4001 15.9999 16.4001C18.43 16.4001 20.3999 14.4301 20.3999 12.0001C20.3999 9.57004 18.43 7.6001 15.9999 7.6001ZM10.3999 12.0001C10.3999 8.9073 12.9071 6.4001 15.9999 6.4001C19.0927 6.4001 21.5999 8.9073 21.5999 12.0001C21.5999 15.0929 19.0927 17.6001 15.9999 17.6001C12.9071 17.6001 10.3999 15.0929 10.3999 12.0001Z" fill="#707070"/>
<path fill-rule="evenodd" clip-rule="evenodd" d="M13.3999 12.0001C13.3999 11.6687 13.6685 11.4001 13.9999 11.4001H17.9999C18.3313 11.4001 18.5999 11.6687 18.5999 12.0001C18.5999 12.3315 18.3313 12.6001 17.9999 12.6001H13.9999C13.6685 12.6001 13.3999 12.3315 13.3999 12.0001Z" fill="#707070"/>
<path fill-rule="evenodd" clip-rule="evenodd" d="M15.9999 9.4001C16.3313 9.4001 16.5999 9.66873 16.5999 10.0001V14.0001C16.5999 14.3315 16.3313 14.6001 15.9999 14.6001C15.6685 14.6001 15.3999 14.3315 15.3999 14.0001V10.0001C15.3999 9.66873 15.6685 9.4001 15.9999 9.4001Z" fill="#707070"/>
<path fill-rule="evenodd" clip-rule="evenodd" d="M5.3999 6.0001C5.3999 5.66873 5.66853 5.4001 5.9999 5.4001H11.9999C12.3313 5.4001 12.5999 5.66873 12.5999 6.0001C12.5999 6.33147 12.3313 6.6001 11.9999 6.6001H5.9999C5.66853 6.6001 5.3999 6.33147 5.3999 6.0001Z" fill="#707070"/>
<path fill-rule="evenodd" clip-rule="evenodd" d="M5.3999 10.0001C5.3999 9.66873 5.66853 9.4001 5.9999 9.4001H8.9999C9.33127 9.4001 9.5999 9.66873 9.5999 10.0001C9.5999 10.3315 9.33127 10.6001 8.9999 10.6001H5.9999C5.66853 10.6001 5.3999 10.3315 5.3999 10.0001Z" fill="#707070"/>
<path fill-rule="evenodd" clip-rule="evenodd" d="M5.3999 14.0001C5.3999 13.6687 5.66853 13.4001 5.9999 13.4001H8.9999C9.33127 13.4001 9.5999 13.6687 9.5999 14.0001C9.5999 14.3315 9.33127 14.6001 8.9999 14.6001H5.9999C5.66853 14.6001 5.3999 14.3315 5.3999 14.0001Z" fill="#707070"/>
<path fill-rule="evenodd" clip-rule="evenodd" d="M5.3999 18.0001C5.3999 17.6687 5.66853 17.4001 5.9999 17.4001H11.9999C12.3313 17.4001 12.5999 17.6687 12.5999 18.0001C12.5999 18.3315 12.3313 18.6001 11.9999 18.6001H5.9999C5.66853 18.6001 5.3999 18.3315 5.3999 18.0001Z" fill="#707070"/>
</svg>
