<svg width="24" height="24" viewBox="0 0 24 24" fill="none" xmlns="http://www.w3.org/2000/svg">
<path d="M7.25 4.875C7.25 6.18668 6.18668 7.25 4.875 7.25C3.56332 7.25 2.5 6.18668 2.5 4.875C2.5 3.56332 3.56332 2.5 4.875 2.5C6.18668 2.5 7.25 3.56332 7.25 4.875Z" fill="#707070"/>
<path d="M7.25 12C7.25 13.3117 6.18668 14.375 4.875 14.375C3.56332 14.375 2.5 13.3117 2.5 12C2.5 10.6883 3.56332 9.625 4.875 9.625C6.18668 9.625 7.25 10.6883 7.25 12Z" fill="#707070"/>
<path d="M7.25 19.125C7.25 20.4367 6.18668 21.5 4.875 21.5C3.56332 21.5 2.5 20.4367 2.5 19.125C2.5 17.8133 3.56332 16.75 4.875 16.75C6.18668 16.75 7.25 17.8133 7.25 19.125Z" fill="#707070"/>
<path d="M14.375 4.875C14.375 6.18668 13.3117 7.25 12 7.25C10.6883 7.25 9.625 6.18668 9.625 4.875C9.625 3.56332 10.6883 2.5 12 2.5C13.3117 2.5 14.375 3.56332 14.375 4.875Z" fill="#707070"/>
<path d="M14.375 12C14.375 13.3117 13.3117 14.375 12 14.375C10.6883 14.375 9.625 13.3117 9.625 12C9.625 10.6883 10.6883 9.625 12 9.625C13.3117 9.625 14.375 10.6883 14.375 12Z" fill="#707070"/>
<path d="M14.375 19.125C14.375 20.4367 13.3117 21.5 12 21.5C10.6883 21.5 9.625 20.4367 9.625 19.125C9.625 17.8133 10.6883 16.75 12 16.75C13.3117 16.75 14.375 17.8133 14.375 19.125Z" fill="#707070"/>
<path d="M21.5 4.875C21.5 6.18668 20.4367 7.25 19.125 7.25C17.8133 7.25 16.75 6.18668 16.75 4.875C16.75 3.56332 17.8133 2.5 19.125 2.5C20.4367 2.5 21.5 3.56332 21.5 4.875Z" fill="#707070"/>
<path d="M21.5 12C21.5 13.3117 20.4367 14.375 19.125 14.375C17.8133 14.375 16.75 13.3117 16.75 12C16.75 10.6883 17.8133 9.625 19.125 9.625C20.4367 9.625 21.5 10.6883 21.5 12Z" fill="#707070"/>
<path d="M21.5 19.125C21.5 20.4367 20.4367 21.5 19.125 21.5C17.8133 21.5 16.75 20.4367 16.75 19.125C16.75 17.8133 17.8133 16.75 19.125 16.75C20.4367 16.75 21.5 17.8133 21.5 19.125Z" fill="#707070"/>
</svg>
