<svg width="24" height="24" viewBox="0 0 24 24" fill="none" xmlns="http://www.w3.org/2000/svg">
<path fill-rule="evenodd" clip-rule="evenodd" d="M12 3.75C9.21296 3.75 6.7477 5.13187 5.2536 7.25H6.99996C7.41417 7.25 7.74996 7.58579 7.74996 8C7.74996 8.41421 7.41417 8.75 6.99996 8.75H3.93548C3.60727 8.75 3.31719 8.5366 3.21948 8.22328L2.28396 5.22328C2.16065 4.82784 2.38125 4.40732 2.77668 4.28401C3.17211 4.16069 3.59264 4.38129 3.71595 4.77672L4.16047 6.20219C5.93608 3.80524 8.78591 2.25 12 2.25C15.8293 2.25 19.1415 4.45765 20.7361 7.66622C20.9204 8.03716 20.7691 8.4873 20.3982 8.67163C20.0273 8.85597 19.5771 8.70471 19.3928 8.33377C18.0419 5.61547 15.2381 3.75 12 3.75ZM3.6017 15.3284C3.97264 15.144 4.42277 15.2953 4.60711 15.6662C5.95799 18.3845 8.76181 20.25 12 20.25C14.7869 20.25 17.2522 18.8681 18.7463 16.75H17C16.5857 16.75 16.25 16.4142 16.25 16C16.25 15.5858 16.5857 15.25 17 15.25H20.0644C20.3926 15.25 20.6827 15.4634 20.7804 15.7767L21.716 18.7767C21.8393 19.1722 21.6187 19.5927 21.2232 19.716C20.8278 19.8393 20.4073 19.6187 20.284 19.2233L19.8394 17.7978C18.0638 20.1948 15.214 21.75 12 21.75C8.17066 21.75 4.85836 19.5423 3.26384 16.3338C3.0795 15.9628 3.23077 15.5127 3.6017 15.3284Z" fill="#138300"/>
</svg>
