<svg width="24" height="24" viewBox="0 0 24 24" fill="none" xmlns="http://www.w3.org/2000/svg">
<path fill-rule="evenodd" clip-rule="evenodd" d="M10.4999 4.6C8.34599 4.6 6.5999 6.34609 6.5999 8.5C6.5999 10.6539 8.34599 12.4 10.4999 12.4C12.6538 12.4 14.3999 10.6539 14.3999 8.5C14.3999 6.34609 12.6538 4.6 10.4999 4.6ZM5.3999 8.5C5.3999 5.68335 7.68325 3.4 10.4999 3.4C13.3166 3.4 15.5999 5.68335 15.5999 8.5C15.5999 11.3167 13.3166 13.6 10.4999 13.6C7.68325 13.6 5.3999 11.3167 5.3999 8.5Z" fill="#333333"/>
<path fill-rule="evenodd" clip-rule="evenodd" d="M13.6094 11.5445C13.861 11.3288 14.2398 11.3579 14.4555 11.6095L20.4555 18.6095C20.6711 18.8611 20.642 19.2399 20.3904 19.4556C20.1388 19.6712 19.76 19.6421 19.5444 19.3905L13.5444 12.3905C13.3287 12.1389 13.3578 11.7601 13.6094 11.5445Z" fill="#333333"/>
<path fill-rule="evenodd" clip-rule="evenodd" d="M18.3999 3.5C18.3999 3.16863 18.6685 2.9 18.9999 2.9H19.9999C20.8836 2.9 21.5999 3.61635 21.5999 4.5V17C21.5999 17.3314 21.3313 17.6 20.9999 17.6C20.6685 17.6 20.3999 17.3314 20.3999 17V4.5C20.3999 4.27909 20.2208 4.1 19.9999 4.1H18.9999C18.6685 4.1 18.3999 3.83137 18.3999 3.5Z" fill="#333333"/>
<path fill-rule="evenodd" clip-rule="evenodd" d="M3.9999 2.6C3.77899 2.6 3.5999 2.77909 3.5999 3V19C3.5999 19.2209 3.77899 19.4 3.9999 19.4H15.9999C16.2208 19.4 16.3999 19.2209 16.3999 19V18.5789C16.3999 18.2476 16.6685 17.9789 16.9999 17.9789C17.3313 17.9789 17.5999 18.2476 17.5999 18.5789V19C17.5999 19.8837 16.8836 20.6 15.9999 20.6H3.9999C3.11625 20.6 2.3999 19.8837 2.3999 19V3C2.3999 2.11635 3.11625 1.4 3.9999 1.4H15.9999C16.8836 1.4 17.5999 2.11635 17.5999 3V12C17.5999 12.3314 17.3313 12.6 16.9999 12.6C16.6685 12.6 16.3999 12.3314 16.3999 12V3C16.3999 2.77909 16.2208 2.6 15.9999 2.6H3.9999Z" fill="#333333"/>
<path fill-rule="evenodd" clip-rule="evenodd" d="M13.2482 6.45378C13.5499 6.59091 13.6833 6.94662 13.5462 7.24829L12.1825 10.2483C12.1039 10.4213 11.948 10.5468 11.7621 10.5867C11.5763 10.6265 11.3826 10.576 11.2399 10.4504L9.47688 8.89893L8.4957 10.338C8.30902 10.6118 7.93575 10.6824 7.66196 10.4957C7.38817 10.3091 7.31755 9.93579 7.50422 9.662L8.86786 7.662C8.96474 7.51991 9.11795 7.42622 9.28858 7.40471C9.45921 7.38321 9.63086 7.43596 9.75997 7.54958L11.425 9.01484L12.4537 6.75172C12.5909 6.45005 12.9466 6.31666 13.2482 6.45378Z" fill="#333333"/>
<path fill-rule="evenodd" clip-rule="evenodd" d="M5.3999 16C5.3999 15.6686 5.66853 15.4 5.9999 15.4H9.9999C10.3313 15.4 10.5999 15.6686 10.5999 16C10.5999 16.3314 10.3313 16.6 9.9999 16.6H5.9999C5.66853 16.6 5.3999 16.3314 5.3999 16Z" fill="#333333"/>
<path fill-rule="evenodd" clip-rule="evenodd" d="M5.3999 18C5.3999 17.6686 5.66853 17.4 5.9999 17.4L12.9999 17.4C13.3313 17.4 13.5999 17.6686 13.5999 18C13.5999 18.3314 13.3313 18.6 12.9999 18.6L5.9999 18.6C5.66853 18.6 5.3999 18.3314 5.3999 18Z" fill="#333333"/>
<path fill-rule="evenodd" clip-rule="evenodd" d="M20.9999 19.9C21.3313 19.9 21.5999 20.1686 21.5999 20.5V21C21.5999 21.8836 20.8836 22.6 19.9999 22.6H4.9999C4.66853 22.6 4.3999 22.3314 4.3999 22C4.3999 21.6686 4.66853 21.4 4.9999 21.4H19.9999C20.2208 21.4 20.3999 21.2209 20.3999 21V20.5C20.3999 20.1686 20.6685 19.9 20.9999 19.9Z" fill="#333333"/>
</svg>
