<svg width="20" height="20" viewBox="0 0 20 20" fill="none" xmlns="http://www.w3.org/2000/svg">
<path fill-rule="evenodd" clip-rule="evenodd" d="M10 9.50001C10.2761 9.50001 10.5 9.72386 10.5 10L10.5001 18.3327C10.5001 18.6089 10.2763 18.8327 10.0001 18.8328C9.72397 18.8328 9.50011 18.6089 9.50011 18.3328L9.50001 10C9.5 9.72387 9.72386 9.50001 10 9.50001Z" fill="#138300"/>
<path fill-rule="evenodd" clip-rule="evenodd" d="M10 1.16667C10.2761 1.16667 10.5 1.39053 10.5 1.66667V5.00001C10.5 5.27615 10.2761 5.50001 10 5.50001C9.72386 5.50001 9.5 5.27615 9.5 5.00001V1.66667C9.5 1.39053 9.72386 1.16667 10 1.16667Z" fill="#138300"/>
<path fill-rule="evenodd" clip-rule="evenodd" d="M9.99992 5.5C9.35559 5.5 8.83325 6.02233 8.83325 6.66667C8.83325 7.311 9.35559 7.83333 9.99992 7.83333C10.6443 7.83333 11.1666 7.311 11.1666 6.66667C11.1666 6.02233 10.6443 5.5 9.99992 5.5ZM7.83325 6.66667C7.83325 5.47005 8.8033 4.5 9.99992 4.5C11.1965 4.5 12.1666 5.47005 12.1666 6.66667C12.1666 7.86328 11.1965 8.83333 9.99992 8.83333C8.8033 8.83333 7.83325 7.86328 7.83325 6.66667Z" fill="#138300"/>
<path fill-rule="evenodd" clip-rule="evenodd" d="M15 13.6667C15.2761 13.6667 15.5 13.8905 15.5 14.1667V18.3333C15.5 18.6095 15.2761 18.8333 15 18.8333C14.7239 18.8333 14.5 18.6095 14.5 18.3333V14.1667C14.5 13.8905 14.7239 13.6667 15 13.6667Z" fill="#138300"/>
<path fill-rule="evenodd" clip-rule="evenodd" d="M15 1.16667C15.2761 1.16667 15.5 1.39053 15.5 1.66667V10C15.5 10.2761 15.2761 10.5 15 10.5C14.7239 10.5 14.5 10.2761 14.5 10V1.66667C14.5 1.39053 14.7239 1.16667 15 1.16667Z" fill="#138300"/>
<path d="M14.9999 15C15.9204 15 16.6666 14.2538 16.6666 13.3333C16.6666 12.4129 15.9204 11.6667 14.9999 11.6667C14.0794 11.6667 13.3333 12.4129 13.3333 13.3333C13.3333 14.2538 14.0794 15 14.9999 15Z" fill="#138300"/>
<path fill-rule="evenodd" clip-rule="evenodd" d="M5 12C5.27614 12 5.5 12.2239 5.5 12.5V18.3333C5.5 18.6095 5.27614 18.8333 5 18.8333C4.72386 18.8333 4.5 18.6095 4.5 18.3333V12.5C4.5 12.2239 4.72386 12 5 12Z" fill="#138300"/>
<path fill-rule="evenodd" clip-rule="evenodd" d="M5 1.16667C5.27614 1.16667 5.5 1.39053 5.5 1.66667V8.33334C5.5 8.60948 5.27614 8.83334 5 8.83334C4.72386 8.83334 4.5 8.60948 4.5 8.33334V1.66667C4.5 1.39053 4.72386 1.16667 5 1.16667Z" fill="#138300"/>
<path d="M4.99992 11.6667C5.92039 11.6667 6.66659 10.9205 6.66659 10C6.66659 9.07954 5.92039 8.33334 4.99992 8.33334C4.07944 8.33334 3.33325 9.07954 3.33325 10C3.33325 10.9205 4.07944 11.6667 4.99992 11.6667Z" fill="#138300"/>
</svg>
