<svg width="24" height="25" viewBox="0 0 24 25" fill="none" xmlns="http://www.w3.org/2000/svg">
<path fill-rule="evenodd" clip-rule="evenodd" d="M5.9999 16.6028C4.67442 16.6028 3.5999 17.6773 3.5999 19.0028C3.5999 20.3283 4.67442 21.4028 5.9999 21.4028C7.32539 21.4028 8.3999 20.3283 8.3999 19.0028C8.3999 17.6773 7.32539 16.6028 5.9999 16.6028ZM2.3999 19.0028C2.3999 17.0146 4.01168 15.4028 5.9999 15.4028C7.98813 15.4028 9.5999 17.0146 9.5999 19.0028C9.5999 20.9911 7.98813 22.6028 5.9999 22.6028C4.01168 22.6028 2.3999 20.9911 2.3999 19.0028Z" fill="#333333"/>
<path fill-rule="evenodd" clip-rule="evenodd" d="M16.9999 16.6028C15.6744 16.6028 14.5999 17.6773 14.5999 19.0028C14.5999 20.3283 15.6744 21.4028 16.9999 21.4028C18.3254 21.4028 19.3999 20.3283 19.3999 19.0028C19.3999 17.6773 18.3254 16.6028 16.9999 16.6028ZM13.3999 19.0028C13.3999 17.0146 15.0117 15.4028 16.9999 15.4028C18.9881 15.4028 20.5999 17.0146 20.5999 19.0028C20.5999 20.9911 18.9881 22.6028 16.9999 22.6028C15.0117 22.6028 13.3999 20.9911 13.3999 19.0028Z" fill="#333333"/>
<path fill-rule="evenodd" clip-rule="evenodd" d="M1.9999 13.6028C1.77899 13.6028 1.5999 13.7819 1.5999 14.0028V17.0028C1.5999 17.2237 1.77899 17.4028 1.9999 17.4028H2.9999C3.33127 17.4028 3.5999 17.6715 3.5999 18.0028C3.5999 18.3342 3.33127 18.6028 2.9999 18.6028H1.9999C1.11625 18.6028 0.399902 17.8865 0.399902 17.0028V14.0028C0.399902 13.1192 1.11625 12.4028 1.9999 12.4028H12.9999C13.3313 12.4028 13.5999 12.6715 13.5999 13.0028C13.5999 13.3342 13.3313 13.6028 12.9999 13.6028H1.9999Z" fill="#333333"/>
<path fill-rule="evenodd" clip-rule="evenodd" d="M8.3999 18.0028C8.3999 17.6715 8.66853 17.4028 8.9999 17.4028H13.9999C14.3313 17.4028 14.5999 17.6715 14.5999 18.0028C14.5999 18.3342 14.3313 18.6028 13.9999 18.6028H8.9999C8.66853 18.6028 8.3999 18.3342 8.3999 18.0028Z" fill="#333333"/>
<path fill-rule="evenodd" clip-rule="evenodd" d="M12.3999 7.00283C12.3999 6.11918 13.1162 5.40283 13.9999 5.40283H19.4337C19.9957 5.40283 20.5165 5.69771 20.8057 6.17964L23.5144 10.6941C23.5703 10.7874 23.5999 10.8941 23.5999 11.0028V17.0028C23.5999 17.8865 22.8836 18.6028 21.9999 18.6028H19.9999C19.6685 18.6028 19.3999 18.3342 19.3999 18.0028C19.3999 17.6715 19.6685 17.4028 19.9999 17.4028H21.9999C22.2208 17.4028 22.3999 17.2237 22.3999 17.0028V11.169L19.7767 6.79703C19.7044 6.67655 19.5742 6.60283 19.4337 6.60283H13.9999C13.779 6.60283 13.5999 6.78192 13.5999 7.00283V18.0028C13.5999 18.3342 13.3313 18.6028 12.9999 18.6028C12.6685 18.6028 12.3999 18.3342 12.3999 18.0028V7.00283Z" fill="#333333"/>
<path fill-rule="evenodd" clip-rule="evenodd" d="M14.3999 8.00283C14.3999 7.67146 14.6685 7.40283 14.9999 7.40283H18.4999C18.7152 7.40283 18.914 7.5182 19.0208 7.70515L21.0208 11.2051C21.127 11.3909 21.1262 11.619 21.0188 11.804C20.9115 11.989 20.7138 12.1028 20.4999 12.1028H14.9999C14.6685 12.1028 14.3999 11.8342 14.3999 11.5028V8.00283ZM15.5999 8.60283V10.9028H19.466L18.1517 8.60283H15.5999Z" fill="#333333"/>
<path fill-rule="evenodd" clip-rule="evenodd" d="M3.59991 2.60283V4.46122L6.49829 6.73852L9.39991 4.43867V2.60283H3.59991ZM2.69404 1.72279C2.88623 1.52145 3.15301 1.40283 3.43741 1.40283H9.56241C9.84682 1.40283 10.1136 1.52145 10.3058 1.72279C10.4971 1.92318 10.5999 2.18925 10.5999 2.46117V4.50428C10.599 4.66277 10.5633 4.81992 10.4946 4.96387C10.4259 5.10789 10.3253 5.23602 10.1985 5.33689L6.87261 7.97305C6.65502 8.14551 6.34753 8.14617 6.12922 7.97463L2.80128 5.35982C2.67453 5.25895 2.57392 5.13081 2.50518 4.98678C2.43648 4.84284 2.40086 4.68569 2.39992 4.5272L2.3999 4.52367L2.39991 2.46117C2.39991 2.18925 2.50276 1.92318 2.69404 1.72279Z" fill="#333333"/>
<path fill-rule="evenodd" clip-rule="evenodd" d="M6.12921 7.03104C6.34752 6.85951 6.65501 6.86016 6.8726 7.03262L10.1985 9.66878C10.3253 9.76965 10.4259 9.89779 10.4946 10.0418C10.5633 10.1858 10.599 10.3429 10.5999 10.5014L10.5999 10.5049L10.5999 12.5445C10.5999 12.8164 10.4971 13.0825 10.3058 13.2829C10.1136 13.4842 9.84681 13.6028 9.5624 13.6028H3.4374C3.153 13.6028 2.88622 13.4842 2.69403 13.2829C2.50275 13.0825 2.3999 12.8164 2.3999 12.5445V10.4785C2.40083 10.32 2.43647 10.1628 2.50517 10.0189C2.57391 9.87487 2.67453 9.74673 2.80127 9.64587L2.8042 9.64354L6.12921 7.03104ZM3.5999 10.5445V12.4028H9.3999V10.567L6.49828 8.26716L3.5999 10.5445Z" fill="#333333"/>
<path d="M8.49976 12.1773H4.49976L6.49976 10.2523L8.49976 12.1773Z" fill="#333333"/>
<path fill-rule="evenodd" clip-rule="evenodd" d="M6.0836 9.82001C6.31592 9.5964 6.68344 9.5964 6.91576 9.82001L8.91576 11.745C9.09211 11.9147 9.14768 12.1746 9.05617 12.4016C8.96467 12.6286 8.74444 12.7773 8.49968 12.7773H4.49968C4.25491 12.7773 4.03469 12.6286 3.94318 12.4016C3.85168 12.1746 3.90725 11.9147 4.0836 11.745L6.0836 9.82001ZM5.98827 11.5773H7.01109L6.49968 11.0851L5.98827 11.5773Z" fill="#333333"/>
</svg>
