<svg width="24" height="25" viewBox="0 0 24 25" fill="none" xmlns="http://www.w3.org/2000/svg">
<path fill-rule="evenodd" clip-rule="evenodd" d="M3.9999 18.6028C3.2267 18.6028 2.5999 19.2296 2.5999 20.0028C2.5999 20.776 3.2267 21.4028 3.9999 21.4028H11.9999C12.3313 21.4028 12.5999 21.6715 12.5999 22.0028C12.5999 22.3342 12.3313 22.6028 11.9999 22.6028H3.9999C2.56396 22.6028 1.3999 21.4388 1.3999 20.0028C1.3999 18.5669 2.56396 17.4028 3.9999 17.4028H10.4999C10.8313 17.4028 11.0999 17.6715 11.0999 18.0028C11.0999 18.3342 10.8313 18.6028 10.4999 18.6028H3.9999Z" fill="#333333"/>
<path fill-rule="evenodd" clip-rule="evenodd" d="M6.4999 2.60283C5.7267 2.60283 5.0999 3.22963 5.0999 4.00283V16.5028C5.0999 16.8342 4.83127 17.1028 4.4999 17.1028C4.16853 17.1028 3.8999 16.8342 3.8999 16.5028V4.00283C3.8999 2.56689 5.06396 1.40283 6.4999 1.40283H19.9999C21.4358 1.40283 22.5999 2.56689 22.5999 4.00283C22.5999 5.43877 21.4358 6.60283 19.9999 6.60283H19.4999C19.1685 6.60283 18.8999 6.3342 18.8999 6.00283C18.8999 5.67146 19.1685 5.40283 19.4999 5.40283H19.9999C20.7731 5.40283 21.3999 4.77603 21.3999 4.00283C21.3999 3.22963 20.7731 2.60283 19.9999 2.60283H6.4999Z" fill="#333333"/>
<path fill-rule="evenodd" clip-rule="evenodd" d="M19.4999 2.60283C18.7267 2.60283 18.0999 3.22963 18.0999 4.00283V13.5028C18.0999 13.8342 17.8313 14.1028 17.4999 14.1028C17.1685 14.1028 16.8999 13.8342 16.8999 13.5028V4.00283C16.8999 2.56689 18.064 1.40283 19.4999 1.40283H19.9999C20.3313 1.40283 20.5999 1.67146 20.5999 2.00283C20.5999 2.3342 20.3313 2.60283 19.9999 2.60283H19.4999Z" fill="#333333"/>
<path fill-rule="evenodd" clip-rule="evenodd" d="M6.3999 6.00283C6.3999 5.67146 6.66853 5.40283 6.9999 5.40283H12.9999C13.3313 5.40283 13.5999 5.67146 13.5999 6.00283C13.5999 6.3342 13.3313 6.60283 12.9999 6.60283H6.9999C6.66853 6.60283 6.3999 6.3342 6.3999 6.00283Z" fill="#333333"/>
<path fill-rule="evenodd" clip-rule="evenodd" d="M6.3999 10.0028C6.3999 9.67146 6.66853 9.40283 6.9999 9.40283H14.9999C15.3313 9.40283 15.5999 9.67146 15.5999 10.0028C15.5999 10.3342 15.3313 10.6028 14.9999 10.6028H6.9999C6.66853 10.6028 6.3999 10.3342 6.3999 10.0028Z" fill="#333333"/>
<path fill-rule="evenodd" clip-rule="evenodd" d="M6.3999 14.0028C6.3999 13.6715 6.66853 13.4028 6.9999 13.4028H10.9999C11.3313 13.4028 11.5999 13.6715 11.5999 14.0028C11.5999 14.3342 11.3313 14.6028 10.9999 14.6028H6.9999C6.66853 14.6028 6.3999 14.3342 6.3999 14.0028Z" fill="#333333"/>
<path fill-rule="evenodd" clip-rule="evenodd" d="M11.9998 15.6901C11.9998 15.3105 12.3085 15.0028 12.6893 15.0028H16.9993C17.3801 15.0028 17.6889 15.3105 17.6889 15.6901V20.6298C17.6889 20.7722 17.5731 20.8876 17.4303 20.8876C17.2874 20.8876 17.1717 20.7722 17.1717 20.6298V15.6901C17.1717 15.5952 17.0945 15.5183 16.9993 15.5183H12.6893C12.5941 15.5183 12.5169 15.5952 12.5169 15.6901V20.2003C12.5169 20.2952 12.5941 20.3721 12.6893 20.3721H13.3358C13.4787 20.3721 13.5944 20.4875 13.5944 20.6298C13.5944 20.7722 13.4787 20.8876 13.3358 20.8876H12.6893C12.3085 20.8876 11.9998 20.5799 11.9998 20.2003V15.6901Z" fill="#333333"/>
<path fill-rule="evenodd" clip-rule="evenodd" d="M11.8499 15.6901C11.8499 15.2272 12.2262 14.8528 12.6894 14.8528H16.9994C17.4626 14.8528 17.839 15.2272 17.839 15.6901V20.6298C17.839 20.8555 17.6556 21.0376 17.4304 21.0376C17.2052 21.0376 17.0218 20.8555 17.0218 20.6298V15.6901C17.0218 15.6785 17.0122 15.6683 16.9994 15.6683H12.6894C12.6766 15.6683 12.667 15.6785 12.667 15.6901V20.2003C12.667 20.2119 12.6766 20.2221 12.6894 20.2221H13.3359C13.5611 20.2221 13.7445 20.4042 13.7445 20.6298C13.7445 20.8555 13.5611 21.0376 13.3359 21.0376H12.6894C12.2262 21.0376 11.8499 20.6632 11.8499 20.2003V15.6901ZM12.6894 15.1528C12.391 15.1528 12.1499 15.3938 12.1499 15.6901V20.2003C12.1499 20.4965 12.391 20.7376 12.6894 20.7376H13.3359C13.3964 20.7376 13.4445 20.6889 13.4445 20.6298C13.4445 20.5708 13.3964 20.5221 13.3359 20.5221H12.6894C12.5119 20.5221 12.367 20.3785 12.367 20.2003V15.6901C12.367 15.5119 12.5119 15.3683 12.6894 15.3683H16.9994C17.177 15.3683 17.3218 15.5119 17.3218 15.6901V20.6298C17.3218 20.6889 17.3699 20.7376 17.4304 20.7376C17.4908 20.7376 17.539 20.6889 17.539 20.6298V15.6901C17.539 15.3938 17.2979 15.1528 16.9994 15.1528H12.6894Z" fill="#333333"/>
<path fill-rule="evenodd" clip-rule="evenodd" d="M15.6641 20.6302C15.6641 20.4878 15.7798 20.3725 15.9227 20.3725H18.0776C18.2204 20.3725 18.3362 20.4878 18.3362 20.6302C18.3362 20.7725 18.2204 20.8879 18.0776 20.8879H15.9227C15.7798 20.8879 15.6641 20.7725 15.6641 20.6302Z" fill="#333333"/>
<path fill-rule="evenodd" clip-rule="evenodd" d="M15.5142 20.6302C15.5142 20.4045 15.6976 20.2225 15.9228 20.2225H18.0777C18.3029 20.2225 18.4863 20.4045 18.4863 20.6302C18.4863 20.8558 18.3029 21.0379 18.0777 21.0379H15.9228C15.6976 21.0379 15.5142 20.8558 15.5142 20.6302ZM15.9228 20.5225C15.8623 20.5225 15.8142 20.5712 15.8142 20.6302C15.8142 20.6892 15.8623 20.7379 15.9228 20.7379H18.0777C18.1382 20.7379 18.1863 20.6892 18.1863 20.6302C18.1863 20.5712 18.1382 20.5225 18.0777 20.5225H15.9228Z" fill="#333333"/>
<path fill-rule="evenodd" clip-rule="evenodd" d="M16.0081 20.6285C16.0081 21.3876 15.3906 22.003 14.6289 22.003C13.8672 22.003 13.2498 21.3876 13.2498 20.6285C13.2498 19.8693 13.8672 19.2539 14.6289 19.2539C15.3906 19.2539 16.0081 19.8693 16.0081 20.6285ZM14.6289 21.4875C15.105 21.4875 15.4909 21.1029 15.4909 20.6285C15.4909 20.154 15.105 19.7694 14.6289 19.7694C14.1529 19.7694 13.7669 20.154 13.7669 20.6285C13.7669 21.1029 14.1529 21.4875 14.6289 21.4875Z" fill="#333333"/>
<path fill-rule="evenodd" clip-rule="evenodd" d="M13.0996 20.6285C13.0996 19.786 13.7847 19.1039 14.6288 19.1039C15.4729 19.1039 16.158 19.786 16.158 20.6285C16.158 21.4709 15.4729 22.153 14.6288 22.153C13.7847 22.153 13.0996 21.4709 13.0996 20.6285ZM14.6288 19.4039C13.9495 19.4039 13.3996 19.9526 13.3996 20.6285C13.3996 21.3043 13.9495 21.853 14.6288 21.853C15.3081 21.853 15.858 21.3043 15.858 20.6285C15.858 19.9526 15.3081 19.4039 14.6288 19.4039ZM14.6288 19.9194C14.2351 19.9194 13.9168 20.2373 13.9168 20.6285C13.9168 21.0196 14.2351 21.3375 14.6288 21.3375C15.0225 21.3375 15.3408 21.0196 15.3408 20.6285C15.3408 20.2373 15.0225 19.9194 14.6288 19.9194ZM13.6168 20.6285C13.6168 20.0707 14.0704 19.6194 14.6288 19.6194C15.1872 19.6194 15.6408 20.0707 15.6408 20.6285C15.6408 21.1862 15.1872 21.6375 14.6288 21.6375C14.0704 21.6375 13.6168 21.1862 13.6168 20.6285Z" fill="#333333"/>
<path fill-rule="evenodd" clip-rule="evenodd" d="M20.7513 20.6285C20.7513 21.3876 20.1338 22.003 19.3721 22.003C18.6104 22.003 17.9929 21.3876 17.9929 20.6285C17.9929 19.8693 18.6104 19.2539 19.3721 19.2539C20.1338 19.2539 20.7513 19.8693 20.7513 20.6285ZM19.3721 21.4875C19.8482 21.4875 20.2341 21.1029 20.2341 20.6285C20.2341 20.154 19.8482 19.7694 19.3721 19.7694C18.896 19.7694 18.5101 20.154 18.5101 20.6285C18.5101 21.1029 18.896 21.4875 19.3721 21.4875Z" fill="#333333"/>
<path fill-rule="evenodd" clip-rule="evenodd" d="M17.8428 20.6285C17.8428 19.786 18.5279 19.1039 19.372 19.1039C20.216 19.1039 20.9011 19.786 20.9011 20.6285C20.9011 21.4709 20.216 22.153 19.372 22.153C18.5279 22.153 17.8428 21.4709 17.8428 20.6285ZM19.372 19.4039C18.6926 19.4039 18.1428 19.9526 18.1428 20.6285C18.1428 21.3043 18.6926 21.853 19.372 21.853C20.0513 21.853 20.6011 21.3043 20.6011 20.6285C20.6011 19.9526 20.0513 19.4039 19.372 19.4039ZM19.372 19.9194C18.9783 19.9194 18.66 20.2373 18.66 20.6285C18.66 21.0196 18.9783 21.3375 19.372 21.3375C19.7656 21.3375 20.0839 21.0196 20.0839 20.6285C20.0839 20.2373 19.7656 19.9194 19.372 19.9194ZM18.36 20.6285C18.36 20.0707 18.8135 19.6194 19.372 19.6194C19.9304 19.6194 20.3839 20.0707 20.3839 20.6285C20.3839 21.1862 19.9304 21.6375 19.372 21.6375C18.8135 21.6375 18.36 21.1862 18.36 20.6285Z" fill="#333333"/>
<path fill-rule="evenodd" clip-rule="evenodd" d="M17.1726 16.3346C17.1726 16.1923 17.2884 16.0769 17.4312 16.0769H20.0371C20.2359 16.0769 20.4251 16.1625 20.5561 16.3116L21.8291 17.7616C21.9391 17.8869 21.9997 18.0477 21.9997 18.2142V20.2005C21.9997 20.5801 21.691 20.8878 21.3101 20.8878H20.6637C20.5208 20.8878 20.4051 20.7724 20.4051 20.6301C20.4051 20.4877 20.5208 20.3723 20.6637 20.3723H21.3101C21.4054 20.3723 21.4825 20.2954 21.4825 20.2005V18.2142C21.4825 18.1726 21.4674 18.1324 21.4399 18.1011L20.1668 16.651C20.1341 16.6138 20.0868 16.5924 20.0371 16.5924H17.4312C17.2884 16.5924 17.1726 16.477 17.1726 16.3346Z" fill="#333333"/>
<path fill-rule="evenodd" clip-rule="evenodd" d="M17.0227 16.3347C17.0227 16.109 17.2061 15.9269 17.4313 15.9269H20.0372C20.2791 15.9269 20.5094 16.031 20.6689 16.2127L21.9419 17.6627C22.0759 17.8153 22.1498 18.0113 22.1498 18.2142V20.2005C22.1498 20.6634 21.7735 21.0378 21.3102 21.0378H20.6637C20.4386 21.0378 20.2552 20.8557 20.2552 20.6301C20.2552 20.4044 20.4386 20.2224 20.6637 20.2224H21.3102C21.3231 20.2224 21.3326 20.2121 21.3326 20.2005V18.2142C21.3326 18.2091 21.3308 18.204 21.3273 18.2L20.0542 16.75L20.1669 16.6511L20.0542 16.75C20.05 16.7452 20.0438 16.7424 20.0372 16.7424H17.4313C17.2061 16.7424 17.0227 16.5603 17.0227 16.3347ZM17.4313 16.2269C17.3708 16.2269 17.3227 16.2756 17.3227 16.3347C17.3227 16.3937 17.3708 16.4424 17.4313 16.4424H20.0372C20.13 16.4424 20.2184 16.4823 20.2796 16.5521L21.5527 18.0021C21.6042 18.0608 21.6326 18.1361 21.6326 18.2142V20.2005C21.6326 20.3787 21.4878 20.5224 21.3102 20.5224H20.6637C20.6033 20.5224 20.5552 20.5711 20.5552 20.6301C20.5552 20.6891 20.6033 20.7378 20.6637 20.7378H21.3102C21.6087 20.7378 21.8498 20.4968 21.8498 20.2005V18.2142C21.8498 18.0842 21.8025 17.9586 21.7165 17.8606L20.4434 16.4106L20.5562 16.3116L20.4434 16.4106C20.341 16.294 20.193 16.2269 20.0372 16.2269H17.4313Z" fill="#333333"/>
<path fill-rule="evenodd" clip-rule="evenodd" d="M18.0344 17.1947C18.0344 17.0524 18.1502 16.937 18.293 16.937H19.586C19.6546 16.937 19.7204 16.9641 19.7689 17.0125L20.8463 18.0863C20.9203 18.16 20.9424 18.2709 20.9024 18.3672C20.8624 18.4635 20.7681 18.5263 20.6635 18.5263H18.293C18.1502 18.5263 18.0344 18.4109 18.0344 18.2685V17.1947ZM18.5516 17.4524V18.0108H20.0392L19.4789 17.4524H18.5516Z" fill="#333333"/>
<path fill-rule="evenodd" clip-rule="evenodd" d="M17.8845 17.1947C17.8845 16.969 18.0679 16.787 18.2931 16.787H19.5861C19.6943 16.787 19.7982 16.8298 19.8748 16.9062L20.9523 17.9801C21.0693 18.0966 21.1044 18.2722 21.041 18.4247C20.9776 18.5772 20.8285 18.6763 20.6636 18.6763H18.2931C18.0679 18.6763 17.8845 18.4942 17.8845 18.2686V17.1947ZM18.2931 17.087C18.2327 17.087 18.1845 17.1357 18.1845 17.1947V18.2686C18.1845 18.3276 18.2327 18.3763 18.2931 18.3763H20.6636C20.7078 18.3763 20.7473 18.3497 20.764 18.3096C20.7806 18.2696 20.7715 18.2234 20.7405 18.1926L19.6631 17.1187C19.6427 17.0984 19.6151 17.087 19.5861 17.087H18.2931ZM18.4017 17.4524C18.4017 17.3696 18.4689 17.3024 18.5517 17.3024H19.479C19.5187 17.3024 19.5568 17.3182 19.5849 17.3462L20.1452 17.9046C20.1882 17.9474 20.2011 18.012 20.1779 18.0681C20.1547 18.1242 20.1 18.1608 20.0393 18.1608H18.5517C18.4689 18.1608 18.4017 18.0937 18.4017 18.0108V17.4524ZM18.7017 17.6024V17.8608H19.6763L19.417 17.6024H18.7017Z" fill="#333333"/>
</svg>
