<svg width="24" height="24" viewBox="0 0 24 24" fill="none" xmlns="http://www.w3.org/2000/svg">
<path fill-rule="evenodd" clip-rule="evenodd" d="M5.87578 11.4282C6.41529 11.3277 6.90894 11.5141 7.27042 11.7337C8.20767 12.3031 8.89792 12.6602 9.59133 12.8808C10.2773 13.0991 10.9978 13.1936 12.0009 13.1936C13.0037 13.1936 13.7239 13.0991 14.4097 12.8809C15.1029 12.6602 15.793 12.3032 16.73 11.7339C17.0915 11.5142 17.5852 11.3277 18.1249 11.4282C19.6608 11.7143 20.784 12.9906 21.2886 14.5066C21.7978 16.0364 21.7204 17.91 20.7706 19.5636L20.7613 19.5792C19.7874 21.1625 17.9662 21.8937 16.2914 22.2456C14.6027 22.6004 12.9107 22.6004 12.0122 22.6004H11.9896C11.0908 22.6004 9.39844 22.6004 7.70944 22.2456C6.0343 21.8938 4.2127 21.1625 3.23858 19.5792L3.22936 19.5637C2.27928 17.91 2.20185 16.0363 2.71124 14.5064C3.21604 12.9903 4.33956 11.7142 5.87578 11.4282ZM6.64738 12.7593C6.4208 12.6217 6.23318 12.5822 6.09541 12.6079C5.11682 12.7901 4.26363 13.6426 3.84978 14.8855C3.44133 16.1123 3.50225 17.6243 4.2653 18.958C4.97571 20.1054 6.37892 20.74 7.95613 21.0713C9.51585 21.3989 11.1005 21.4004 12.0009 21.4004C12.9011 21.4004 14.4853 21.3989 16.0446 21.0713C17.6215 20.74 19.0243 20.1055 19.7346 18.958C20.4974 17.6243 20.5583 16.1123 20.15 14.8856C19.7363 13.6427 18.8833 12.7902 17.9051 12.6079C17.7674 12.5823 17.5797 12.6217 17.3531 12.7594C16.3921 13.3433 15.6048 13.7598 14.7737 14.0243C13.9352 14.2912 13.0841 14.3936 12.0009 14.3936C10.9174 14.3936 10.0661 14.2912 9.22744 14.0243C8.39613 13.7598 7.60867 13.3433 6.64738 12.7593Z" fill="#333333"/>
<path fill-rule="evenodd" clip-rule="evenodd" d="M11.9997 2.60039C9.56965 2.60039 7.59966 4.57038 7.59966 7.00048C7.59966 9.43058 9.56965 11.4006 11.9997 11.4006C14.4299 11.4006 16.3998 9.43058 16.3998 7.00048C16.3998 4.57038 14.4299 2.60039 11.9997 2.60039ZM6.39966 7.00048C6.39966 3.90764 8.9069 1.40039 11.9997 1.40039C15.0926 1.40039 17.5998 3.90764 17.5998 7.00048C17.5998 10.0933 15.0926 12.6006 11.9997 12.6006C8.9069 12.6006 6.39966 10.0933 6.39966 7.00048Z" fill="#333333"/>
</svg>
