<svg width="24" height="25" viewBox="0 0 24 25" fill="none" xmlns="http://www.w3.org/2000/svg">
<path fill-rule="evenodd" clip-rule="evenodd" d="M13.3999 3.00274C13.3999 2.67137 13.6685 2.40274 13.9999 2.40274H17.9999C18.8836 2.40274 19.5999 3.11909 19.5999 4.00274V9.00274C19.5999 9.33411 19.3313 9.60274 18.9999 9.60274C18.6685 9.60274 18.3999 9.33411 18.3999 9.00274V4.00274C18.3999 3.78183 18.2208 3.60274 17.9999 3.60274H13.9999C13.6685 3.60274 13.3999 3.33411 13.3999 3.00274Z" fill="#333333"/>
<path d="M2.9999 3.60274C2.77899 3.60274 2.5999 3.78183 2.5999 4.00274V21.0027C2.5999 21.2237 2.77899 21.4027 2.9999 21.4027H11C12 21.4027 12 22.6027 11 22.6027H2.9999C2.11625 22.6027 1.3999 21.8864 1.3999 21.0027V4.00274C1.3999 3.11908 2.11625 2.40274 2.9999 2.40274H7.4999C7.83127 2.40274 8.0999 2.67137 8.0999 3.00274C8.0999 3.33411 7.83127 3.60274 7.4999 3.60274H2.9999Z" fill="#333333"/>
<path fill-rule="evenodd" clip-rule="evenodd" d="M6.8999 2.00274C6.8999 1.67137 7.16853 1.40274 7.4999 1.40274H13.4999C13.8313 1.40274 14.0999 1.67137 14.0999 2.00274V4.00274C14.0999 4.33411 13.8313 4.60274 13.4999 4.60274H7.4999C7.16853 4.60274 6.8999 4.33411 6.8999 4.00274V2.00274ZM8.0999 2.60274V3.40274H12.8999V2.60274H8.0999Z" fill="#333333"/>
<path fill-rule="evenodd" clip-rule="evenodd" d="M7.3999 7.00274C7.3999 6.67137 7.66853 6.40274 7.9999 6.40274H16.9999C17.3313 6.40274 17.5999 6.67137 17.5999 7.00274C17.5999 7.33411 17.3313 7.60274 16.9999 7.60274H7.9999C7.66853 7.60274 7.3999 7.33411 7.3999 7.00274Z" fill="#333333"/>
<path fill-rule="evenodd" clip-rule="evenodd" d="M7.3999 12.0027C7.3999 11.6714 7.66853 11.4027 7.9999 11.4027L10.9 11.4027C11.2314 11.4027 11.5 11.6714 11.5 12.0027C11.5 12.3341 11.2314 12.6027 10.9 12.6027H7.9999C7.66853 12.6027 7.3999 12.3341 7.3999 12.0027Z" fill="#333333"/>
<path fill-rule="evenodd" clip-rule="evenodd" d="M7.3999 17.0027C7.3999 16.6714 7.66853 16.4027 7.9999 16.4027H9.4C9.73137 16.4027 10 16.6714 10 17.0027C10 17.3341 9.73137 17.6027 9.4 17.6027H7.9999C7.66853 17.6027 7.3999 17.3341 7.3999 17.0027Z" fill="#333333"/>
<path fill-rule="evenodd" clip-rule="evenodd" d="M3.3999 6.00274C3.3999 5.67137 3.66853 5.40274 3.9999 5.40274H5.9999C6.33127 5.40274 6.5999 5.67137 6.5999 6.00274V8.00274C6.5999 8.33411 6.33127 8.60274 5.9999 8.60274H3.9999C3.66853 8.60274 3.3999 8.33411 3.3999 8.00274V6.00274ZM4.5999 6.60274V7.40274H5.3999V6.60274H4.5999Z" fill="#333333"/>
<path fill-rule="evenodd" clip-rule="evenodd" d="M3.3999 11.0027C3.3999 10.6714 3.66853 10.4027 3.9999 10.4027H5.9999C6.33127 10.4027 6.5999 10.6714 6.5999 11.0027V13.0027C6.5999 13.3341 6.33127 13.6027 5.9999 13.6027H3.9999C3.66853 13.6027 3.3999 13.3341 3.3999 13.0027V11.0027ZM4.5999 11.6027V12.4027H5.3999V11.6027H4.5999Z" fill="#333333"/>
<path fill-rule="evenodd" clip-rule="evenodd" d="M3.3999 16.0027C3.3999 15.6714 3.66853 15.4027 3.9999 15.4027H5.9999C6.33127 15.4027 6.5999 15.6714 6.5999 16.0027V18.0027C6.5999 18.3341 6.33127 18.6027 5.9999 18.6027H3.9999C3.66853 18.6027 3.3999 18.3341 3.3999 18.0027V16.0027ZM4.5999 16.6027V17.4027H5.3999V16.6027H4.5999Z" fill="#333333"/>
<path fill-rule="evenodd" clip-rule="evenodd" d="M17.1003 13.6029C17.3765 13.6029 17.6003 13.8268 17.6003 14.1029L17.6003 17.1029C17.6003 17.3791 17.3765 17.6029 17.1003 17.6029C16.8242 17.6029 16.6003 17.3791 16.6003 17.1029L16.6003 14.1029C16.6003 13.8268 16.8242 13.6029 17.1003 13.6029Z" fill="#333333"/>
<path fill-rule="evenodd" clip-rule="evenodd" d="M17.4539 16.7494C17.6492 16.9446 17.6492 17.2612 17.4539 17.4565L15.9539 18.9565C15.7586 19.1518 15.4421 19.1518 15.2468 18.9565C15.0515 18.7612 15.0515 18.4446 15.2468 18.2494L16.7468 16.7494C16.9421 16.5541 17.2586 16.5541 17.4539 16.7494Z" fill="#333333"/>
<path fill-rule="evenodd" clip-rule="evenodd" d="M17.2222 12.6029C15.3193 12.6029 13.6897 13.8534 13.0894 15.614C13.0003 15.8753 12.7161 16.015 12.4548 15.9258C12.1934 15.8367 12.0538 15.5526 12.1429 15.2912C12.8728 13.1508 14.8654 11.6029 17.2222 11.6029C20.204 11.6029 22.6003 14.0771 22.6003 17.1029C22.6003 20.1288 20.204 22.6029 17.2222 22.6029C14.6106 22.6029 12.447 20.7035 11.9513 18.2001C11.8976 17.9292 12.0737 17.6661 12.3446 17.6125C12.6155 17.5588 12.8786 17.7349 12.9322 18.0058C13.3404 20.0669 15.114 21.6029 17.2222 21.6029C19.6286 21.6029 21.6003 19.5999 21.6003 17.1029C21.6003 14.6059 19.6286 12.6029 17.2222 12.6029Z" fill="#333333"/>
<path fill-rule="evenodd" clip-rule="evenodd" d="M11.9456 13.6276C12.2082 13.5422 12.4903 13.6858 12.5757 13.9484L12.8821 14.8905L13.8234 14.4081C14.0692 14.2822 14.3705 14.3793 14.4964 14.625C14.6224 14.8708 14.5253 15.1721 14.2795 15.298L12.8161 16.048C12.6857 16.1148 12.5327 16.1211 12.3973 16.0653C12.2619 16.0094 12.1578 15.897 12.1126 15.7577L11.6247 14.2577C11.5393 13.9951 11.683 13.713 11.9456 13.6276Z" fill="#333333"/>
</svg>
