<svg width="24" height="24" viewBox="0 0 24 24" fill="none" xmlns="http://www.w3.org/2000/svg">
<path fill-rule="evenodd" clip-rule="evenodd" d="M1.3999 4.99717C1.3999 3.00894 3.01168 1.39717 4.9999 1.39717H18.9999C20.9881 1.39717 22.5999 3.00894 22.5999 4.99717V18.9972C22.5999 20.9854 20.9881 22.5972 18.9999 22.5972H4.9999C3.01168 22.5972 1.3999 20.9854 1.3999 18.9972V4.99717ZM4.9999 2.59717C3.67442 2.59717 2.5999 3.67168 2.5999 4.99717V18.9972C2.5999 20.3227 3.67442 21.3972 4.9999 21.3972H18.9999C20.3254 21.3972 21.3999 20.3227 21.3999 18.9972V4.99717C21.3999 3.67168 20.3254 2.59717 18.9999 2.59717H4.9999Z" fill="#707070"/>
<path fill-rule="evenodd" clip-rule="evenodd" d="M5.9999 15.3972C6.33127 15.3972 6.5999 15.6658 6.5999 15.9972V18.9972C6.5999 19.3285 6.33127 19.5972 5.9999 19.5972C5.66853 19.5972 5.3999 19.3285 5.3999 18.9972V15.9972C5.3999 15.6658 5.66853 15.3972 5.9999 15.3972Z" fill="#707070"/>
<path fill-rule="evenodd" clip-rule="evenodd" d="M9.9999 11.3972C10.3313 11.3972 10.5999 11.6658 10.5999 11.9972V18.9972C10.5999 19.3285 10.3313 19.5972 9.9999 19.5972C9.66853 19.5972 9.3999 19.3285 9.3999 18.9972V11.9972C9.3999 11.6658 9.66853 11.3972 9.9999 11.3972Z" fill="#707070"/>
<path fill-rule="evenodd" clip-rule="evenodd" d="M13.9999 13.3972C14.3313 13.3972 14.5999 13.6658 14.5999 13.9972V18.9972C14.5999 19.3285 14.3313 19.5972 13.9999 19.5972C13.6685 19.5972 13.3999 19.3285 13.3999 18.9972V13.9972C13.3999 13.6658 13.6685 13.3972 13.9999 13.3972Z" fill="#707070"/>
<path fill-rule="evenodd" clip-rule="evenodd" d="M17.9999 8.39717C18.3313 8.39717 18.5999 8.6658 18.5999 8.99717V18.9972C18.5999 19.3285 18.3313 19.5972 17.9999 19.5972C17.6685 19.5972 17.3999 19.3285 17.3999 18.9972V8.99717C17.3999 8.6658 17.6685 8.39717 17.9999 8.39717Z" fill="#707070"/>
<path fill-rule="evenodd" clip-rule="evenodd" d="M18.4515 4.60207C18.6697 4.85145 18.6444 5.2305 18.395 5.44871L14.9003 8.50663C14.4113 8.93445 13.7122 9.02414 13.1311 8.73359L10.3321 7.33406C10.1868 7.26142 10.012 7.28385 9.88977 7.3908L6.39501 10.4487C6.14563 10.6669 5.76657 10.6417 5.54836 10.3923C5.33016 10.1429 5.35543 9.76383 5.60481 9.54562L9.09957 6.48771C9.58851 6.05988 10.2876 5.9702 10.8687 6.26075L13.6678 7.66027C13.813 7.73291 13.9878 7.71049 14.1101 7.60353L17.6048 4.54562C17.8542 4.32741 18.2332 4.35268 18.4515 4.60207Z" fill="#707070"/>
</svg>
