<svg width="16" height="16" viewBox="0 0 16 16" fill="none" xmlns="http://www.w3.org/2000/svg">
<g clip-path="url(#clip0_1509_8746)">
<path d="M8 0.666664C12.0501 0.666664 15.3333 3.94991 15.3333 8C15.3333 12.05 12.0501 15.3333 8 15.3333C3.94991 15.3333 0.666666 12.05 0.666666 8C0.666666 3.94991 3.94991 0.666664 8 0.666664Z" fill="#1BA103"/>
<path fill-rule="evenodd" clip-rule="evenodd" d="M12.4021 4.92701C12.7549 5.27415 12.7549 5.83696 12.4021 6.18409L7.43438 11.073C7.08165 11.4201 6.50975 11.4201 6.15702 11.073L3.59788 8.55446C3.24515 8.20733 3.24515 7.64452 3.59788 7.29738C3.95061 6.95025 4.52251 6.95025 4.87524 7.29738L6.7957 9.18736L11.1248 4.92701C11.4775 4.57988 12.0494 4.57988 12.4021 4.92701Z" fill="white"/>
</g>
<defs>
<clipPath id="clip0_1509_8746">
<rect width="16" height="16" rx="3" fill="white"/>
</clipPath>
</defs>
</svg>
