<svg width="14" height="14" viewBox="0 0 14 14" fill="none" xmlns="http://www.w3.org/2000/svg">
<path fill-rule="evenodd" clip-rule="evenodd" d="M9.57912 0.522044C9.99568 0.105485 10.6711 0.105486 11.0876 0.522045L13.4781 2.91257C13.8947 3.32913 13.8947 4.0045 13.4781 4.42106L5.40503 12.4942C5.27685 12.6224 5.11811 12.7158 4.94381 12.7656L1.02017 13.8866C0.466977 14.0446 -0.0444681 13.5332 0.113587 12.98L1.23463 9.05637C1.28443 8.88207 1.37783 8.72333 1.50601 8.59515L9.57912 0.522044ZM10.5219 1.08773C10.4178 0.98359 10.2489 0.98359 10.1448 1.08773L9.23238 2.00015L12 4.7678L12.9124 3.85538C13.0166 3.75124 13.0166 3.58239 12.9124 3.47826L10.5219 1.08773ZM11.4343 5.33348L8.6667 2.56584L2.07169 9.16084C2.03965 9.19288 2.0163 9.23257 2.00385 9.27614L0.915773 13.0844L4.72404 11.9963C4.76761 11.9839 4.8073 11.9605 4.83934 11.9285L11.4343 5.33348Z" fill="#138300"/>
</svg>
