<svg width="16" height="16" viewBox="0 0 16 16" fill="none" xmlns="http://www.w3.org/2000/svg">
<path fill-rule="evenodd" clip-rule="evenodd" d="M2.93333 2.66666C2.93333 2.44575 3.11242 2.26666 3.33333 2.26666H12.6667C12.8876 2.26666 13.0667 2.44575 13.0667 2.66666V14C13.0667 14.5891 12.5891 15.0667 12 15.0667H4C3.4109 15.0667 2.93333 14.5891 2.93333 14V2.66666ZM3.73333 3.06666V14C3.73333 14.1473 3.85273 14.2667 4 14.2667H12C12.1473 14.2667 12.2667 14.1473 12.2667 14V3.06666H3.73333Z" fill="#FF3434"/>
<path fill-rule="evenodd" clip-rule="evenodd" d="M1.6 2.66666C1.6 2.44575 1.77908 2.26666 2 2.26666L14 2.26666C14.2209 2.26666 14.4 2.44575 14.4 2.66666C14.4 2.88758 14.2209 3.06666 14 3.06666L2 3.06666C1.77908 3.06666 1.6 2.88758 1.6 2.66666Z" fill="#FF3434"/>
<path fill-rule="evenodd" clip-rule="evenodd" d="M5.33333 5.59998C5.55425 5.59998 5.73333 5.77906 5.73333 5.99998V12C5.73333 12.2209 5.55425 12.4 5.33333 12.4C5.11242 12.4 4.93333 12.2209 4.93333 12V5.99998C4.93333 5.77906 5.11242 5.59998 5.33333 5.59998Z" fill="#FF3434"/>
<path fill-rule="evenodd" clip-rule="evenodd" d="M8 5.59998C8.22091 5.59998 8.4 5.77906 8.4 5.99998V12C8.4 12.2209 8.22091 12.4 8 12.4C7.77908 12.4 7.6 12.2209 7.6 12V5.99998C7.6 5.77906 7.77908 5.59998 8 5.59998Z" fill="#FF3434"/>
<path fill-rule="evenodd" clip-rule="evenodd" d="M10.6667 5.59998C10.8876 5.59998 11.0667 5.77906 11.0667 5.99998V12C11.0667 12.2209 10.8876 12.4 10.6667 12.4C10.4457 12.4 10.2667 12.2209 10.2667 12V5.99998C10.2667 5.77906 10.4457 5.59998 10.6667 5.59998Z" fill="#FF3434"/>
<path fill-rule="evenodd" clip-rule="evenodd" d="M6.66667 1.73332C6.51939 1.73332 6.4 1.85271 6.4 1.99999V2.66665C6.4 2.88757 6.22091 3.06665 6 3.06665C5.77908 3.06665 5.6 2.88757 5.6 2.66665V1.99999C5.6 1.41088 6.07756 0.933319 6.66667 0.933319H9.33333C9.92244 0.933319 10.4 1.41088 10.4 1.99999V2.66665C10.4 2.88757 10.2209 3.06665 10 3.06665C9.77908 3.06665 9.6 2.88757 9.6 2.66665V1.99999C9.6 1.85271 9.48061 1.73332 9.33333 1.73332H6.66667Z" fill="#FF3434"/>
</svg>
