<svg width="44" height="22" viewBox="0 0 44 22" fill="none" xmlns="http://www.w3.org/2000/svg">
<g clip-path="url(#clip0_1236_9700)">
<path d="M33.6172 8.69357C33.786 8.26734 33.9268 7.91425 34.0675 7.56368C34.853 5.6116 35.7101 3.69483 36.9049 1.94452C37.2555 1.43254 37.6674 0.976042 38.1152 0.542246C38.829 -0.151323 40.1288 -0.156367 40.8759 0.433797C41.5616 0.976042 41.9889 1.68726 42.3496 2.45145C43.043 3.92182 43.3679 5.49054 43.6033 7.07945C44.1048 10.4565 44.0715 13.8512 43.8259 17.2459C43.7492 18.2926 43.5163 19.319 43.1786 20.3153C43.0225 20.7768 42.8204 21.2182 42.4648 21.5687C41.9761 22.053 41.4618 22.0429 41.0166 21.5132C40.6405 21.0643 40.4077 20.5372 40.2209 19.9874C39.7066 18.4741 39.4072 16.9079 39.1284 15.3417C38.7471 13.2081 38.5092 11.0567 38.3019 8.89786C38.1996 8.91047 38.2226 8.9937 38.2124 9.0517C37.6904 11.7856 37.1301 14.5095 36.1476 17.1299C35.8073 18.0378 35.4466 18.9407 34.8146 19.7049C34.7813 19.7453 34.7532 19.7856 34.7199 19.8235C34.0368 20.5851 33.3306 20.5902 32.6372 19.8361C32.0436 19.1904 31.6624 18.4212 31.3298 17.6267C30.4624 15.5612 29.8637 13.4149 29.3571 11.2409C29.2394 10.7364 29.1243 10.232 28.9426 9.73771C28.9426 10.5599 28.9554 11.3821 28.9426 12.2043C28.9068 14.3228 28.7379 16.4313 28.3107 18.512C28.1264 19.4124 27.8603 20.2951 27.364 21.0845C27.0314 21.6116 26.599 22.0126 25.9107 21.9924C25.2455 21.9723 24.8156 21.5788 24.4958 21.0618C23.9815 20.2295 23.7359 19.2989 23.5977 18.348C23.237 15.8739 23.2114 13.3871 23.4289 10.9004C23.6438 8.44641 24.0301 6.02018 24.9589 3.70996C25.3146 2.82724 25.7163 1.96469 26.3252 1.21816C26.6476 0.819673 27.0262 0.48676 27.4996 0.264818C28.2006 -0.0630504 28.8531 0.0277441 29.4518 0.499371C30.0531 0.970998 30.4957 1.57882 30.8795 2.22447C31.9387 4.01009 32.6858 5.92686 33.3434 7.88146C33.4253 8.12863 33.5097 8.37327 33.6197 8.69609L33.6172 8.69357Z" fill="#FF2C00"/>
<path d="M12.6418 0.0202147C14.768 -0.0882342 16.8353 0.279988 18.8899 0.761703C19.5321 0.913027 20.1077 1.18289 20.5581 1.6646C21.2386 2.39096 21.2207 3.23333 20.5504 3.96725C20.0745 4.4868 19.4579 4.73144 18.8029 4.91807C17.8101 5.20054 16.7867 5.23837 15.7658 5.28125C14.8268 5.3216 13.8853 5.33673 12.9437 5.35943C12.5241 5.36952 12.5036 5.39726 12.5471 5.82602C12.6316 6.6583 12.7083 7.49058 12.7825 8.32286C12.8107 8.63812 12.8951 8.71883 13.2968 8.72892C13.9825 8.74405 14.6631 8.81971 15.3411 8.90294C16.4285 9.03661 17.5005 9.25603 18.5393 9.6066C18.9487 9.74531 19.3325 9.92942 19.683 10.1816C20.3738 10.6734 20.3994 11.2863 19.747 11.8336C19.3453 12.1715 18.8822 12.4111 18.3909 12.5877C16.8455 13.1451 15.2515 13.483 13.6166 13.6419C12.8465 13.715 12.8567 13.71 12.8362 14.4666C12.7851 16.333 12.629 18.1892 12.1685 20.0076C12.0328 20.5473 11.8282 21.0644 11.4853 21.5183C11.0964 22.0353 10.6077 22.1413 10.0295 21.8336C9.42565 21.5158 8.95743 21.0618 8.6376 20.4641C7.94423 19.1678 7.53229 17.7781 7.26364 16.3456C7.13827 15.6823 7.01546 15.019 6.95405 14.3456C6.91312 13.8865 6.85939 13.8437 6.39628 13.8159C5.41634 13.7554 4.44152 13.6469 3.48205 13.4477C2.6326 13.2712 1.78571 13.0719 1.00534 12.6734C0.749483 12.5423 0.506417 12.3935 0.304289 12.1917C-0.0948502 11.7932 -0.110202 11.3493 0.268469 10.9282C0.557589 10.6053 0.91835 10.3733 1.30981 10.1942C2.83985 9.4931 4.46967 9.17028 6.12507 8.94329C6.21718 8.93068 6.30673 8.92059 6.39884 8.91303C6.64446 8.89789 6.7596 8.78188 6.76728 8.52967C6.81077 7.26107 6.85683 5.99247 6.96173 4.72639C7.03849 3.79323 7.13315 2.85754 7.32761 1.94203C7.50159 1.12992 8.00051 0.570026 8.8295 0.345561C9.60987 0.133708 10.4107 0.0277809 11.2218 0.0252588C11.6926 0.0252588 12.1633 0.0252588 12.6341 0.0252588L12.6418 0.0202147Z" fill="#FF2C00"/>
</g>
<defs>
<clipPath id="clip0_1236_9700">
<rect width="44" height="22" fill="white"/>
</clipPath>
</defs>
</svg>
